<svg xmlns="http://www.w3.org/2000/svg" width="1920" height="126" viewBox="0 0 1920 126">
  <metadata><?xpacket begin="﻿" id="W5M0MpCehiHzreSzNTczkc9d"?>
<x:xmpmeta xmlns:x="adobe:ns:meta/" x:xmptk="Adobe XMP Core 5.6-c138 79.159824, 2016/09/14-01:09:01        ">
   <rdf:RDF xmlns:rdf="http://www.w3.org/1999/02/22-rdf-syntax-ns#">
      <rdf:Description rdf:about=""/>
   </rdf:RDF>
</x:xmpmeta>
                                                                                                    
                                                                                                    
                                                                                                    
                                                                                                    
                                                                                                    
                                                                                                    
                                                                                                    
                                                                                                    
                                                                                                    
                                                                                                    
                                                                                                    
                                                                                                    
                                                                                                    
                                                                                                    
                                                                                                    
                                                                                                    
                                                                                                    
                                                                                                    
                                                                                                    
                                                                                                    
                           
<?xpacket end="w"?></metadata>
<defs>
    <style>
      .cls-1 {
        fill: #0b0b0b;
        fill-rule: evenodd;
      }
    </style>
  </defs>
  <path class="cls-1" d="M1920,17.96V125.732c-2.5.067-4.99,0.193-7.49,0.193Q960.5,125.939,8.486,125.933c-1.5,0-3,.069-4.5-0.027-1.273-.081-2.533-0.352-3.667-0.52C-1,118.694-.54,22.593.874,18.237c6.2-1.033,12.545,2.073,18.545,1.01,6.791-1.2,11.851,3.44,18.073,3.1C26.022,24.521,26.022,24.521,24.265,27.3c0.874,0.417,1.716,1.163,2.559,1.165,4.916,0.007,9.727.9,14.769,0.329,8.208-.936,16.559-0.578,24.842-0.931a67.852,67.852,0,0,0,7.827-1.291c1.853,1.889,4.726.325,7.463,0.333,5.986,0.017,11.974.08,17.956-.082,5.474-.149,10.938-0.639,16.412-0.853,7.973-.313,15.952-0.479,23.926-0.775,4.288-.159,8.63-1.01,12.844-0.568,6.434,0.675,12.489-1.358,18.763-1.707,6.22-.346,12.395-1.507,18.175-2.257l3.816,3.274c4.657,0,9.159.124,13.651-.044,2.935-.11,5.852-0.909,8.782-0.944,10.127-.12,20.292.572,30.279-1.849a8.641,8.641,0,0,1,1.924-.018c-0.288-.9-0.51-1.594-0.886-2.772,3.284,0.162,6.116.732,8.793,0.317a11.938,11.938,0,0,1,7.6,1.244,8.16,8.16,0,0,0,6.128.429c5.765-2.608,11.858-3.138,17.936-3.313,10.288-.3,20.59-0.077,30.886-0.04,1.634,0.006,3.268.189,4.36,0.256,2.276,1.717,2.309,4.823,5.145,5l3.678-4.632c4.051,4.586,8.439,5.505,12.428,2.767,3.544,0.966,6.224,1.756,8.935,2.419s5.485,1.1,8.186,1.815c4.052,1.067,7.98,2.957,13.39,1.607l-14.31-8.112a16.917,16.917,0,0,1,7.808-1.44c7.263,0.759,14.521.181,21.776,0.345,0.828,0.019,1.654.125,2.658,0.205,4.566,5.1,11.192,4.789,16.936,6.673,0.82-1.447,1.348-2.376,1.977-3.485l4.718,2.854c3.607-6.568,9.477-7.064,15.937-5.917a14.361,14.361,0,0,0,2.94.458c7.735-.283,15.512-2.091,23.155.724a3.831,3.831,0,0,0,.99.007q11.613,0.771,23.225,1.564a8.633,8.633,0,0,1,1.431.4,74.612,74.612,0,0,0,9.068,2.169c1.8,0.22,3.933.425,5.494-1.5a4.058,4.058,0,0,1,3.15-.987c2.795,0.31,5.733.53,8.28,1.587,3.934,1.632,7.386,1.658,10.643-1.236l4.27,2.446c4.715,0,9.694.2,14.652-.043,9.609-.474,19.2-1.272,28.808-1.8,8.627-.474,17.267-0.721,25.9-1.163,2.8-.143,5.292.17,6.563,2.554l11.284-.657,3.409,3.093L611.1,27.167c2.984,2.008,10.71,4.258,13.082,3.244a7.89,7.89,0,0,1,6.9.4l14.125-3.7-3.051-4.324c5.023-2.113,7.869.06,10.037,4.459l6.139-3.855,3.015,3.112h6.492l1.3-3.327,5.284-.826,3.612,3.131,6.12-3.554,5.281,2.575,4.5-2.236c0.014,0.252.027,0.5,0.041,0.756H725.4l2.016,3.7c2.707-2.736,5.211-4.853,8.905-4.794,6.151,0.1,12.311-.129,18.453.125,3.078,0.127,6.295.376,8.6,3.163,1.389,1.682,3.37,1.82,5.5,1.236a102.776,102.776,0,0,1,11.166-2.672,36.277,36.277,0,0,1,10.381-.553c8.039,1.109,15.891,1.364,23.574-1.745a8.268,8.268,0,0,1,2.28-.269l1.845,2.2,2.231-2.575,11.623,1.516c5.771-2.019,13.747.829,20.074-2.022,3.159,0.044,5.538.1,7.917,0.1,0.818,0,1.849-.52,2.417-0.185,2.64,1.556,5.125.137,7.7,0.025,3.279-.143,6.746-2.049,9.862.114-0.141,1.254-.242,2.149-0.373,3.317h6.2c0.446-1.582-1.889-3.989,1.738-4.273l3.262,4.526,2.375-4.835,4.252,7.874c3.849-1.33,6.938-.888,9.852,1.31,0.68,0.513,2.081.076,3.488,0.076-0.305-1.575-.537-2.779-0.816-4.221,2.511-.123,4.925.2,7.047-0.436,4.775-1.44,9.286-.085,13.555,1.31,3.493,1.142,6.752,2.248,10.5,2.037,4.476-.251,8.976-0.059,13.336-0.059,2.353,3.689,4.272,7.328,4.807,10.862,1.232-3.424,2.579-7.166,3.979-11.056,5.04,0.263,9.669.756,14.287,0.659,3.254-.068,6.958-0.125,9.624-1.647,3.706-2.115,7.568-2.34,11.436-2.775,1.927-.217,4.007.825,6.037,1.3-0.47,1.694-.76,2.756-1.1,3.991a9.787,9.787,0,0,0,2.14.5c8.59-.157,17.19-0.258,25.77-0.571,9.14-.333,18.26-1.128,27.39-1.249,7.27-.1,14.56.471,21.84,0.835,4.3,0.215,8.59.749,12.9,0.881,4.42,0.136,8.85.013,13.28-.1,2.8-.074,5.6-0.283,8.39-0.541,3.46-.32,6.91-0.8,10.37-1.129,11.6-1.1,23.2,2.046,34.82-.017,7.82-1.388,15.77-1.47,23.68-1.769a63.67,63.67,0,0,1,7.72.608c2.19,0.1,4.71.5,6.58-.411,2.96-1.443,5.63-1.1,8.67-.826,3.51,0.313,7.22,2.942,10.97-.151-0.45,1.715-.89,3.431-1.42,5.49,6.61,6.906,13.65,4.4,20.83,1.046,0.25,0.532.57,1.233,0.95,2.056,3.51-.531,6.77-0.666,9.87.836a4.515,4.515,0,0,0,1.49.094c3.79,0.3,7.59.689,11.39,0.893,2.59,0.139,5.2.027,7.81,0.027l0.21-.893-3.51-1.815c0.07-.248.14-0.5,0.22-0.746h6.05c-1.34-1.44-2.24-2.4-3.57-3.826,2.11-.492,3.93-1.537,4.89-1.014,2.16,1.177,3.71.369,5.56-.374,0.85-.342,1.96-0.033,2.96-0.038,1.95-.009,3.91.013,5.86-0.058,4.22-.154,8.47-1.282,12.6.1,0.26,1.261.46,2.29,0.7,3.493,4.71-1.275,9.09-2.3,12.54.189,3.14-2.141,5.81-3.962,9.15-6.242,0.25-.489.9-1.8,1.7-3.406,2.09-.173,4.47-1.05,6.25-0.371a20.586,20.586,0,0,0,10.05,1.133,11.042,11.042,0,0,1,2.49.1,1.674,1.674,0,0,1,.67.424c-0.11.962-.21,1.877-0.31,2.7,3.77,1.605,8.33,1.756,13.86,1.244a60.074,60.074,0,0,1,9.88.3c2.97,0.22,5.93,1.028,8.88.979,8.28-.137,16.56-0.518,24.83-0.935,4.2-.212,8.39-0.706,12.59-1.072,2.93-.127,5.91.02,8.89,0.145,4.49,0.187,8.97.347,13.46,0.541,2.81,0.121,5.63.293,8.44,0.422,2.13,0.1,4.26.089,6.38,0.263,2.47,0.2,4.93.733,7.41,0.8,4.79,0.135,9.61-.165,14.4.115,4.4,0.258,8.64.866,12.85,3.036,3.48,1.794,8.05,2.263,12.07,2.055,4.98-.258,9.88-0.764,14.58,1.1,2.75,1.092,6.25,1.115,7.62,4.5,6.54,1.659,12.95-1.073,19.92-.313-1.56-2.971-3-5.707-4.57-8.708-2.2.567-4.68,1.208-7.86,2.032l4.1,2.3c-5.19.414-10.11,0.262-14.62-1.88-0.01-.367-0.01-0.735-0.01-1.1l4.61-1.65c-0.15-1.059-.3-2.155-0.48-3.427a24.27,24.27,0,0,0,2.19-1.2,7.717,7.717,0,0,0,1.84-1.581c2.97-3.892,2.95-3.907,5.99-1.272,3.41-.339,6.38-1.119,9.22-0.806a47.6,47.6,0,0,0,13.42-.2c-1.12,1.074-2.25,2.149-3.96,3.776l11.81-1.123c-0.61-.81-0.92-1.192-1.19-1.6a4.5,4.5,0,0,1,.35-1.18c4.48,4.206,9.13,3.271,13.76.029,4.66,3.819,8.92,1.053,13.16-.741,1.34,1.208,2.43,2.2,3.13,2.827l8.1-1.073c0.35-.291,1.33-1.107,2.36-1.97,5.24,2.013,11.17-1,14.76,2.121,4.37,0,7.52-.176,10.65.051a66.835,66.835,0,0,1,8.74,1.336c2.83,0.588,5.6,1.445,8.4,2.184l-0.21.9h-18.83c0.55,2.753,1.02,5.132,1.51,7.6,4.45,0.257,8.53.519,12.62,0.7a3.161,3.161,0,0,0,1.91-.494c3.56-2.712,7.86-2.221,12.06-2.857,0.86,0.551,1.82,1.165,2.5,1.594,1.98-.735,3.62-1.76,5.34-1.906,6.28-.535,12.59-0.884,18.9-1.1,5.31-.179,10.64-0.027,15.96-0.127a17.082,17.082,0,0,0,3.58-1.012l-19.84-3.173c-0.01-.4-0.02-0.791-0.04-1.187a10.833,10.833,0,0,1,2.94-.715c8.8,0.382,17.59.856,26.39,1.328a2.282,2.282,0,0,1,.82.465c-0.1.919-.2,1.843-0.31,2.807,2.53-.183,2.53-0.183,4.88-3.177,1.43,0,3.03-.366,4.38.064,5.31,1.7,10.99-.954,16.2,1.536a2.286,2.286,0,0,0,.98-0.077c5.76-.451,11.53.352,17.25,0.622,9.75,0.46,19.49,1.468,29.28,1.586,13.95,0.167,27.9.122,41.85,0.549,5.39,0.165,10.86.782,15.98,2.933a4.043,4.043,0,0,0,2.41.266c6.16-1.6,12.22.486,18.33,0.577a109.2,109.2,0,0,0,12.08-.874c0.37-1.458.72-2.79,1.1-4.251a16.739,16.739,0,0,0-3.23-1.055c-8.48-.74-16.96-1.505-25.46-2.046-4.13-.263-8.3-0.055-12.44-0.077-4.47-.024-9.05.549-13.35-0.3-3.35-.661-7.28-1.239-9.56-4.622a2.87,2.87,0,0,0-1.17-.344c-0.7.948-1.47,1.98-2.1,2.84a58.7,58.7,0,0,1-18.52.372c-5.96-.736-12.05.839-18.46-0.514,2.11-3.837,4.47-5.533,8.32-5.456,8.79,0.176,17.6.146,26.4,0.03,4.55-.06,9.09-0.086,13.67-0.522,5.4-.512,11,1.2,16.98,2,1.01-.3,3.91-1.4,4.03-1.15,1.61,3.283,4.4,1.594,6.49,1.529,9.12-.285,18.23-1.28,27.35-1.3,10.79-.023,21.58.71,32.37,1.076C1909.78,17.752,1914.89,17.835,1920,17.96Zm-837.87,20.9c2.28-2.35,4.77-1.322,7.23-1.079a32.107,32.107,0,0,0,6.35.127c3.11-.314,6.14-1.415,9.25.319,0.82,0.461,2.24-.035,3.36-0.222,2.45-.406,4.86-1.131,7.24.451a3.942,3.942,0,0,0,2.42.182c6.54-.84,13.07-1.733,20.02-2.664-1.54-3.467-4.42-3.122-6.99-3.769-3.4-.858-5.51.674-7.28,3.394-1-1.3-1.7-2.2-2.36-3.065-5.52,1.054-11.19-2.781-16.54,1.279-5.95-2.825-12-.667-18.07-0.372-5.83.284-11.68,0.241-17.51,0.275a24.116,24.116,0,0,1-2.43-.543,25.226,25.226,0,0,0-2.73-.023c-1.39,1.987-2.59,3.711-4.26,6.088,2.52-.506,4.66-0.645,6.57-1.378C1071.63,35.862,1076.69,35.451,1082.13,38.864Zm-32.09.232,0.78-1.559c-0.82-1.066-1.43-2.735-2.48-3.087-3.31-1.109-6.56-2.443-10.35-1.86-3.47.532-7.08,0.113-10.62,0.113V32.227c-3.54.785-7.09,1.57-10.69,2.369-5.08-2.417-10.57-1.177-15.91-1.334-3.94-.116-7.9.324-12.262,0.536l-7.7,3.6c3.683,1.251,6.7,1.767,10.061,1.077,4.011-.824,8.146-2.145,12.008.659a3.085,3.085,0,0,0,1.04.246c1.06-.615,2.18-1.268,3.31-1.928,1.06,0.72,1.97,1.339,2.66,1.806l6.07-2.478c1.96,1.274,3.52,2.282,5.07,3.29,4.11-.338,6.15-6.207,10.78-3.878-0.57.942-1.02,1.679-1.77,2.91h20ZM21.5,40.844l0.282,0.995q8.858,0,17.715-.008a3.392,3.392,0,0,0,.786-0.15l3.189-3,1.346,2.322c5.022-.752,9.58-1.49,14.155-2.105a37.951,37.951,0,0,1,14.248.684c3.664,0.892,7.555.866,11.349,1.195a3.731,3.731,0,0,0,1.322-.446L84.73,37.49l21.846-1.54c-1.281-2.3-3.2-2.057-4.931-1.987-7.118.288-14.233,0.677-21.35,1-7.1.323-14.214,0.479-21.3,0.953-8.59.575-17.177,1.269-25.736,2.19A55.544,55.544,0,0,0,21.5,40.844ZM500.24,33.4c3.309-1.119,6.45.334,9.634-1.545-5.6-5.01-12.317-1.516-17.719-3.525l-3.041-4.281-1.248.283c-0.331,1.75-.662,3.5-1.057,5.591l-16.266.986c2.992,2.489,4.976,4.008,7.992,3.372a9.324,9.324,0,0,1,3.355.365,57.083,57.083,0,0,0,6.233,1.167c3.132,0.2,6.285.052,9.882,0.052ZM139.809,56.128l-0.153-1.187c-1.782.113-3.566,0.195-5.345,0.347-2.149.184-4.288,0.554-6.439,0.624-5.913.191-11.872-1.13-17.739,0.879-1.5.514-3.307,0.143-4.974,0.171-5.493.094-10.987,0.253-16.48,0.256-3.95,0-7.907-.4-11.849-0.272-4.895.155-9.936-.945-15.824,1.62,2.246,0.133,3.326.293,4.4,0.246,10.291-.45,20.582.14,30.868,0.192,13.845,0.07,27.562-1.141,41.31-2.26A12.051,12.051,0,0,0,139.809,56.128Zm65.9-23.757a21.86,21.86,0,0,0,3.2.249c6.916-.544,13.831-1.111,20.74-1.745,3.289-.3,6.578-0.678,9.834-1.218,0.763-.127,1.393-1.053,2.152-1.668-3.532-2.757-8.32-2.838-21.455-.66l-2.676,2.877-2.633-3.817-4.123,3.49c-3.334-3.8-3.334-3.8-6.608-1.992Q204.895,30.041,205.709,32.371ZM429.545,47.028a15.661,15.661,0,0,0-3.263-.917q-11.119-.678-22.251-1.175c-3.652-.164-7.33.047-10.963-0.281-7.413-.669-14.8-1.6-22.207-2.365a2.773,2.773,0,0,0-1.084.843C389.67,46.153,409.385,48.927,429.545,47.028ZM1294.27,30.765c0.12-.563.23-1.066,0.38-1.773-2.08.655-4.04,1.68-6.05,1.8-2.27.135-4.59-.529-6.88-0.88-1.14-.175-2.28-0.438-3.42-0.639-1.59-.28-2.86.125-4.01,2.061,3.07,0.566,5.74,1.239,8.46,1.517,3.91,0.4,7.96.05,11.76,0.879,4.21,0.919,8.23.1,12.32-.1,0.5-.024.97-0.679,2.51-1.846Zm-134.18,6.8c1.15-2.542,2.21-4.86,3.44-7.583-6.02-.519-11.12,1.062-16.75,2.008C1149.39,39.245,1155.69,35.783,1160.09,37.563ZM453.389,48c-0.024.212-.047,0.425-0.071,0.638,2.2,0.567,4.38,1.526,6.6,1.614,3.976,0.157,7.975-.157,11.959-0.374,3.616-.2,7.245-0.37,10.831-0.839,4.6-.6,9.167-1.457,13.736-2.266,2.193-.388,4.36-0.921,6.539-1.388q-0.074-.6-0.146-1.2c-1.707,0-3.52-.377-5.1.065-6.777,1.894-13.6,3.184-20.679,2.771a17.775,17.775,0,0,0-3.448.487c-5.571.8-11.1,2.354-16.784,0.535A11.785,11.785,0,0,0,453.389,48ZM114.677,36.809c-4.224-1.094-4.224-1.094-5.553,1.464l5.161,2.227,6.337-2.524-1.636-3.851Zm324.111-9.569a18.79,18.79,0,0,1,2.63-1.824,27.12,27.12,0,0,1,3.672-1.146c-5.432-2.741-8.137-2.54-11.521.717Zm760.392,0.715c1.04,2.428,1.68,3.92,2.35,5.5,2.6,1.063,5.08,2.18,7.98.668a3.937,3.937,0,0,0-.66-1.6C1205.96,31.094,1203.03,29.756,1199.18,27.955Zm-139.52,6.227-0.69-1.093c-2.17.582-4.35,1.165-6.59,1.765,0.36,2.8,1.26,4.649,4.6,3.682C1057.84,37.134,1058.75,35.658,1059.66,34.182Zm-78.387-.907c-4.174-2.178-8.279-.91-13.157.317C973.014,35.676,977.107,33.407,981.273,33.274ZM875.159,31.71c-3.684-.657-6.291-0.47-9.066,1.263,0.753,1.089,1.347,1.948,2.218,3.21Zm300.091,3.674c-3.74-2.035-3.91-2-5.26,1.263C1171.92,36.8,1173.82,37.49,1175.25,35.384ZM378.339,49.16h-9.22C372.162,51.555,375.277,49.221,378.339,49.16ZM864.2,32.463h-7.4C859.352,34.871,861.853,32.561,864.2,32.463Zm-750,15.2q-0.387,2.586-.772,5.173C115.847,51.424,116.245,49.719,114.2,47.666ZM448.923,48.8q0.033-.746.065-1.492h-5.73c-0.018.158-.035,0.315-0.053,0.472Zm-58.305.134h-8.6C386.709,50.492,386.709,50.492,390.618,48.935Zm-288.781-9.48q0.069,0.549.139,1.1c1.414,0.278,2.871.875,4.969-1.635ZM1180.27,33.606c0.01-.606.01-1.212,0.02-1.818l-3.44.332c0,0.4,0,.8-0.01,1.2ZM134.356,35.375c1.884,0.548,3.21.96,4.155-.975C136.9,33.116,135.841,33.824,134.356,35.375Zm21.3-2c1.354,1.509,2.581,1.993,3.875-.242Zm45.356-1.8L200.937,30.1l-3.962.655c0.033,0.27.067,0.541,0.1,0.812h3.934ZM1316.87,32.2c-0.18.316-.37,0.633-0.55,0.949,0.4,0.427.77,1.17,1.2,1.2,0.58,0.044,1.2-.461,2.76-1.16C1318.46,32.656,1317.66,32.426,1316.87,32.2ZM1070.8,38.254c0.04,0.349.07,0.7,0.1,1.048l3.92-.3-0.09-1.038ZM142.821,54.643q0.156,0.577.311,1.155l2.781-.857c-0.088-.294-0.175-0.587-0.263-0.881Zm562.3-18.2c-0.989-.714-1.34-1.165-1.68-1.157a2.478,2.478,0,0,0-1,.741,3.833,3.833,0,0,0,1.165,1.049A3.589,3.589,0,0,0,705.121,36.439Zm791.459,8.82c-1.39-1.757-1.39-1.757-3.26-.687ZM166.856,31.541c-1.331-.192-1.84-0.423-2.176-0.272a3.476,3.476,0,0,0-.928,1.049l0.5,0.547Zm764.082,3.694q-0.008-.555-0.013-1.11l-2.1.368c0.03,0.247.061,0.495,0.091,0.742h2.025ZM286.866,0L294.8,4.832l-11.05,1.835c-2.241-2.685,1.1-4.416,1.119-6.669h2ZM1487.21,15.4a9.8,9.8,0,0,1-1.76.55c-7.71.9-15.31,2.656-23.19,2.15-3.77-.241-7.59.694-11.4,0.827-4.66.164-9.35-.222-13.99,0.124-4.87.363-7.95-2.309-10.98-5.379,3.14,0.5,6.68.131,8.01,3.582,6.16-.9,12.14-2.783,17.94-2.354,6.82,0.5,13.51-.626,20.28-0.143,4.21,0.3,8.49-.472,12.73-0.7a12.087,12.087,0,0,1,2.33.32Zm256.24,1.509c0.18,0.519.59,1.668,1.26,3.611-13.59-.273-26.56,0-39.33-3.611h38.07Zm-317.62,1.978c-3.25,0-6.54.328-9.71-.12-1.98-.278-3.79-1.73-6.18-2.9l6.13-3.193c1.91,4.762,6.74,3.3,9.89,5.15C1425.92,18.177,1425.87,18.532,1425.83,18.887Zm229.85,4.845a2.522,2.522,0,0,1,.77-0.84c5.1-.175,10.2-0.357,15.3-0.4a14.945,14.945,0,0,1,3.46.837c-1.36,3.668-4.01,1.531-5.99,1.658a39.04,39.04,0,0,1-7.36-.088C1659.84,24.644,1657.23,26.652,1655.68,23.732ZM574.915,12.338l-2.733,3L569.1,11.568c2.6-2.263,5.068-1.428,7.077-1.423l3.771,4.319-2.738.993Zm-265.9-1.023c-2.957,4.159-6.575,1.764-10.556,1.3C302.062,9.373,305.8,13,309.01,11.315Zm1040.1,2.352c1.24-1.348,2.47-2.7,4.05-4.419,1.02,1.469,1.77,2.554,2.62,3.774-2.26.523-4.07,0.944-5.89,1.366ZM115.193,13.579l-4.462.314c0.106-2.58,1.111-3.883,3.286-3.617,0.707,0.086,1.269,1.346,1.9,2.069ZM1219.71,27.014c1.45-.826,2.23-1.27,3.63-2.072,0.5,2.03.9,3.618,1.35,5.451C1221.67,30.815,1221.5,28.547,1219.71,27.014Zm5.77-.229c0.85-.971,1.7-1.942,2.97-3.395,0.98,1.578,1.58,2.546,2.55,4.112l-4.8.387ZM562.386,13.012c-3.076-4.123-3.041-4.259.885-5.714C562.949,9.379,562.667,11.2,562.386,13.012ZM320.3,13.545l-7.709-.892C315.6,10.168,316.185,10.239,320.3,13.545Zm-61.063.272,3.771-3.943c-0.286,3.712-.286,3.712-3,4.724ZM325,12.91c1.249-2.368,2.554-2.278,4.638-.258ZM347.294,13.3V10.2c2.571,0.908,2.576,1.9,1.4,3.118Zm-11.119-.614c-3.372-.07-3.579-1.423-2.8-3.529ZM625.621,22.821l-1.074,2.848C622.811,23.969,623.2,23.133,625.621,22.821ZM239.977,11.72l2.79-2.181a2.577,2.577,0,0,1,.606.922C243,11.682,242.64,13.02,239.977,11.72Zm272.986,4.5h3.691q0.036,0.315.071,0.63L513,17.505Q512.982,16.861,512.963,16.217Zm-446.388-1.5-3.7.54-0.123-.89,3.73-.38ZM222.615,28.349l3.886-.4,0.117,0.7-3.793.837Z"/>
</svg>
