<svg xmlns="http://www.w3.org/2000/svg" width="71" height="77" viewBox="0 0 71 77">
  <metadata><?xpacket begin="﻿" id="W5M0MpCehiHzreSzNTczkc9d"?>
<x:xmpmeta xmlns:x="adobe:ns:meta/" x:xmptk="Adobe XMP Core 5.6-c138 79.159824, 2016/09/14-01:09:01        ">
   <rdf:RDF xmlns:rdf="http://www.w3.org/1999/02/22-rdf-syntax-ns#">
      <rdf:Description rdf:about=""/>
   </rdf:RDF>
</x:xmpmeta>
                                                                                                    
                                                                                                    
                                                                                                    
                                                                                                    
                                                                                                    
                                                                                                    
                                                                                                    
                                                                                                    
                                                                                                    
                                                                                                    
                                                                                                    
                                                                                                    
                                                                                                    
                                                                                                    
                                                                                                    
                                                                                                    
                                                                                                    
                                                                                                    
                                                                                                    
                                                                                                    
                           
<?xpacket end="w"?></metadata>
<defs>
    <style>
      .cls-1 {
        fill: #2141eb;
        fill-rule: evenodd;
      }
    </style>
  </defs>
  <path class="cls-1" d="M20.582,77c-3.384-2.322-7.528-.713-11.437-0.34L0,65.662l6.615-14.5a10.686,10.686,0,0,1-1.306-2.823c-0.448-2.208-1.179-4.627-.7-6.706C6.185,34.843,7.586,28.1,7.1,21.056a7.59,7.59,0,0,1,4.029-7.416c1.971-1.162,3.729-2.682,5.6-4.018,0.931-.665,1.874-1.774,2.857-1.825,4.312-.226,6.546-2.691,7.855-6.44A6.275,6.275,0,0,1,28.487-.006H67.093C70.76,1.856,71,5.523,70.736,9.218c-0.188,2.62-1.3,2.957-5.718,2.368L54.229,23.049v9.056c4.749-2.029,6.536-1.03,6.878,3.512,0.135,1.8-.117,3.62-0.135,5.432a12.747,12.747,0,0,0,.173,3.319c0.948,3.6,2.043,7.161,2.911,10.152l-7.572,12.7-7.1,1.824c-1.439,4.186-2.068,4.343-6.474,3.986-4.733-.384-9.492-1.1-14.018,1.761C26.819,76.1,23.949,76.16,20.582,77Zm15.791-7.589q-0.041-.678-0.082-1.355c-1.755-.129-3.62-1.076-5.19.175l0.152,1.532Z"/>
</svg>
