<svg xmlns="http://www.w3.org/2000/svg" width="685" height="84" viewBox="0 0 685 84">
  <metadata><?xpacket begin="﻿" id="W5M0MpCehiHzreSzNTczkc9d"?>
<x:xmpmeta xmlns:x="adobe:ns:meta/" x:xmptk="Adobe XMP Core 5.6-c138 79.159824, 2016/09/14-01:09:01        ">
   <rdf:RDF xmlns:rdf="http://www.w3.org/1999/02/22-rdf-syntax-ns#">
      <rdf:Description rdf:about=""/>
   </rdf:RDF>
</x:xmpmeta>
                                                                                                    
                                                                                                    
                                                                                                    
                                                                                                    
                                                                                                    
                                                                                                    
                                                                                                    
                                                                                                    
                                                                                                    
                                                                                                    
                                                                                                    
                                                                                                    
                                                                                                    
                                                                                                    
                                                                                                    
                                                                                                    
                                                                                                    
                                                                                                    
                                                                                                    
                                                                                                    
                           
<?xpacket end="w"?></metadata>
<defs>
    <style>
      .cls-1 {
        fill: #2141eb;
        fill-rule: evenodd;
      }
    </style>
  </defs>
  <path class="cls-1" d="M119.151,66.077l-3.02-4.685-1.712,1.986-6.584.925c-0.211-.777-0.487-1.8-0.765-2.822-4.231,1.24-8.171,1.651-11.661-.135L89.08,62.906l-0.886-4.333c-1.588,1.215-3.071,2.215-4.4,3.392-2.543,2.255-5.156,3.483-8.647,2.026-1.224-.511-2.837-0.081-5.028-0.081-0.869-.234-2.537-0.694-4.211-1.132C64.468,62.4,63,62.121,61.58,61.664c-2.037-.657-4.021-1.855-6.12-0.2C51,60.116,46.174,62.1,41.75,59.9c-0.978-.486-2.4-0.071-4.384-0.071-0.507-.211-1.855-0.762-3.192-1.337-0.6-.256-1.488-0.408-1.7-0.865-2.084-4.409-6.947-4.217-10.4-6.314-1.234-.749-3.217-0.384-4.848-0.31-2.982.136-5.963,0.676-8.932,0.592A70.38,70.38,0,0,1,0,50.425c3.619-5.87,9.659-5.358,15.093-6.081,3.113-.414,6.321-0.1,9.485-0.15,2.805-.047,4.755-1.513,6.956-3.271,5.043-4.029,5.874-8.827,3.957-14.688,2.353-1.887,5.037-1.812,7.623-2.051,3.287-.3,6.623-1.069,9.854-0.756,4.372,0.424,8.529-1.215,12.64-1.024,5.529,0.257,10.789-.8,16.169-1.269,2.234-.2,4.248,1.282,6.668,1.084,2.736-.225,5.378,1.277,8.359.192,2.673-.973,5.668.076,8.639-0.586,2.109-.47,4.757.775,7.221,0.262,6.726-1.4,13.482-.225,20.223-0.244,2.67-.008,5.3.115,7.826-1.1a5.064,5.064,0,0,1,3.366-.519c2.24,0.729,4.25.015,6.372-.285a40.339,40.339,0,0,1,5.21-.043c2.876-1.771,2.876-1.771,3.5-5.552,3.232-.505,6.783-0.171,9.792-2.382a22.9,22.9,0,0,0,11.6,3.7c2.487,0.094,4.925,1.474,7.266,2.948,0.951-.258,1.9-0.512,2.852-0.777,0.79-.22,1.576-0.453,2.625-0.755V21.5l3.338-.756L197.95,22.5l8.072-3.378a18.355,18.355,0,0,1,2.549,1.014c2.914,1.64,5.688,2.513,8.866.316,1.074-.742,2.887-0.507,4.366-0.539,8.453-.184,16.949.4,25.664-1.541l-2.2-2.773,0.708-3.708a2.431,2.431,0,0,0-1.05-.142c-1.355,1.429-2.487,3.222-5.455,2.618,1.084-1.6.116-4.124,3.083-4.427V7.779l10.186,1.295,0.913,2.138,17.851,4.444L268.027,9.7a29.587,29.587,0,0,1,4.942-2.019c1.4-.282,3.1,1.4,4.3-0.7-3.37-3.163-7.358-1.817-11.67-1.217,0.5-.815.677-1.419,0.93-1.455C272.182,3.5,278,3.754,283.388.953c0.5,3.183-1.871,3.486-3.125,4.971,0.281,2.926-1.6,4.987-4.366,7.124l5.555,1.611V7.709l4.871-1.958c0.117-.8.234-1.592,0.344-2.346a3.156,3.156,0,0,1,.966-0.392,8.371,8.371,0,0,0,2.452.062,39.9,39.9,0,0,1,8.331-1.581C301.2,1.116,303.971,1,306.74.853c5.518-.289,11.045-0.423,16.57-0.547,5.646-.127,11.3-0.3,16.941-0.21,8.772,0.14,17.541.487,26.438,0.75,0.414,1.029.706,1.752,1.262,3.132,2.924,0.555,6.314,1.158,9.685,1.847,5.839,1.194,11.665,2.448,17.5,3.662a11.242,11.242,0,0,0,2.919.452c5.907-.387,11.488,1.264,17.175,2.451,6.964,1.453,14.023,2.443,21.028,3.7,10.053,1.809,20.093,1.524,30.189.287,5.777-.707,11.09.4,15.559,4.839,1.614,1.606,4.365,2.342,6.73,2.836,3.723,0.779,7.555,1.038,11.345,1.481,4.607,0.538,9.211,1.128,13.83,1.516a21.792,21.792,0,0,0,5.971-.26c2.9-.572,5.521-0.74,8.023,1.309a4.613,4.613,0,0,0,3.253.584,48.508,48.508,0,0,1,17.671.98c2.722,0.6,5.482,1.021,8.06,1.493l-2.208,9.781c4.491,1.71,9.1,1.761,13.66,2.054,2.292,0.147,4.606-.052,6.9.085,9.315,0.554,17.056-3.321,24.667-8.626,2.513,0.246,5.095-.576,7.8-1.51A48.07,48.07,0,0,1,617.9,31.1c1.457-.167,2.359.936,2.319,2.83-3.994,1.553-9.792.627-11.066,7.315l5.367,0.284a5.276,5.276,0,0,1-4.886,3.754,10.015,10.015,0,0,0-3.551,1.33,30.03,30.03,0,0,0-6.631,3.8c-1.889,1.566-4.329,2.461-6.877,3.842l-1.218-1.477c-0.381,3.648-3.8,3.97-5.933,5.155a24.591,24.591,0,0,1-11.241,3.551c-4.159.092-7.9,1.081-10.426,5.391a55.379,55.379,0,0,1-6.244-.742,6.759,6.759,0,0,0-6.5,1.478c1.22,3.086,5.074.4,6.46,3.513l-1.293,1.935-1.922-2.36c-1.12.391-2.816,0.448-3.47,1.307-2.3,3.013-7.751,2.793-7.936,7.963a5.07,5.07,0,0,1-1.876.459c-8.676-1.448-16.728,1.639-24.972,3.363a37.952,37.952,0,0,1-6.84.995c-6.488.145-12.984,0.215-19.47,0.046-6.454-.168-12.9-0.717-19.351-0.984-2.308-.1-4.651.384-6.942,0.185-4.6-.4-9.156-1.28-13.755-1.6-4.285-.3-8.6-0.142-12.9-0.142-3.468,0-6.935.071-10.4,0.1-0.329,0-.658-0.137-0.987-0.14-8.1-.07-16.193-0.119-24.29-0.2-1.5-.015-2.993-0.148-4.489-0.24-8.946-.553-17.9-1.05-26.837-1.69a111.582,111.582,0,0,1-13.255-1.435c-7.094-1.375-14.249-.459-21.351-1.088-6.576-.583-13.169-0.965-19.758-1.38-2.976-.187-5.959-0.32-8.94-0.334-4.654-.022-9.309.125-13.963,0.1a18.1,18.1,0,0,1-3.926-.584,20.99,20.99,0,0,0-8.312-.715c-2.691.426-5.569-.455-8.372-0.574a47.786,47.786,0,0,0-5.447.3,6.769,6.769,0,0,1-1.959.251c-6.288-1.66-12.944-.237-19.075-1.812-5.553-1.427-11-.943-16.491-1.38-1.758-.14-3.49-0.609-5.405-0.959l-2.321,2.014-5.324-2.1a8.707,8.707,0,0,1-8.92.807c-1.828-.772-3.928-0.568-6.189.016-3,.775-6.481,1.534-9.644-0.486a4.74,4.74,0,0,0-5.854.514c-4.767-1.008-9.213-3.844-14.115-.453l-2.642-3.134-1.431,2.273L159.059,67a44.492,44.492,0,0,1-4.111,2.869c-1.235.692-2.82,1.68-3.987,1.406-4.658-1.094-9.279-.075-13.9-0.247-4.271-.159-8.66.622-12.515-2.257-0.728-.544-2.2-0.078-3.614-0.078l-1.83-2.673,3.691,0.706c-0.063-2.359-.658-4.747,2.173-6.119-2.05-1.093-3.377-2.332-5.811-1.975v7.444ZM166.52,45.362c0.507-1.69.5-2.832,1.042-3.226a20.588,20.588,0,0,1,3.559-1.6,3.033,3.033,0,0,0,.649-1L169.843,37.3c-6.13,4.334-13.713,3.807-20.127,6.893,3.994,0.45,8.138,1.9,10.965-2.2ZM125.288,65.367l5.383,3.521c4.861-.823,4.861-0.823,5-4.179l-4.977.676-1.339-1.977ZM250.7,18.543c2.049,1.3,3.553,1.735,5.009-.523l-5.389-3.012C250.492,16.6,250.593,17.534,250.7,18.543ZM227.339,7.92c-0.194.617-.389,1.235-0.716,2.271l-1.073-2.83L223.3,9.716c-4.5.623-8.652,1.141-12.782,1.79-2.423.381-4.628,0.482-5.883-2.168,1.295-2.944,3.675-2.636,5.976-2.1,2.069,0.484,3.833.495,5.5-1.8L211.928,4.3a5.033,5.033,0,0,1,1.437-.4q3.942,0.333,7.874.773c2.425,0.275,4.7,1.488,7.325.65,1.065-.34,2.482.435,3.764,0.707-1.286,4.109-1.256,4.033,2.172,5.407,0.915,0.367,1.583,1.357,2.514,2.2-3.019,2.518-4.8-.906-6.733-0.559l-2.1-5.5Zm451.5,28.8c-7.923,4.728-16.68,4-25.337,3.893a2.7,2.7,0,0,1-1.422-.368,17.966,17.966,0,0,1-1.835-1.619L644.561,41.7c-0.806-2.2.434-2.816,1.639-3.3a23.544,23.544,0,0,1,12.683-1.115,37.049,37.049,0,0,0,17.8-1.459,5.447,5.447,0,0,1,2.163.272A3.721,3.721,0,0,1,678.837,36.72Zm-40.071,3.931a6.559,6.559,0,0,1-1.82,1.209c-7.242,1.79-14.683,1.948-22.853,3.286l3.654-4.62c6.629-.33,13.494-0.676,20.361-0.977A3.493,3.493,0,0,1,638.766,40.651Zm-449.283-30c4.23-1.588,5.124-1.426,6.732,1.564,1,1.853,1.652,3.891,2.82,6.716-1.63-.57-3.024-0.723-3.108-1.141C195.207,14.213,192.323,12.561,189.483,10.647Zm217.554-8.91C402.455,3.618,398.7,4.6,394.22,4.283c2.547-3.115,5.989-2.825,8.878-3.728C403.957,0.287,405.161,1.134,407.037,1.738ZM657.8,4.761c0.144,2.718-3.84,4.61-10.09,4.509ZM678.837,36.72a3.721,3.721,0,0,0,.008-0.624c1.857-1.541,3.356-3.7,6.155-3.62C683.644,36.34,683.393,36.514,678.837,36.72Z"/>
</svg>
