<svg xmlns="http://www.w3.org/2000/svg" width="51" height="1080" viewBox="0 0 51 1080">
  <metadata><?xpacket begin="﻿" id="W5M0MpCehiHzreSzNTczkc9d"?>
<x:xmpmeta xmlns:x="adobe:ns:meta/" x:xmptk="Adobe XMP Core 5.6-c138 79.159824, 2016/09/14-01:09:01        ">
   <rdf:RDF xmlns:rdf="http://www.w3.org/1999/02/22-rdf-syntax-ns#">
      <rdf:Description rdf:about=""/>
   </rdf:RDF>
</x:xmpmeta>
                                                                                                    
                                                                                                    
                                                                                                    
                                                                                                    
                                                                                                    
                                                                                                    
                                                                                                    
                                                                                                    
                                                                                                    
                                                                                                    
                                                                                                    
                                                                                                    
                                                                                                    
                                                                                                    
                                                                                                    
                                                                                                    
                                                                                                    
                                                                                                    
                                                                                                    
                                                                                                    
                           
<?xpacket end="w"?></metadata>
<defs>
    <style>
      .cls-1 {
        fill: #0b0b0b;
        fill-rule: evenodd;
      }
    </style>
  </defs>
  <path class="cls-1" d="M43.967,1080H0V0H43.967L44.8,6.168l-1.642,3.7c1.987,3.59,1.987,3.59,1.071,7.332l1.319,4.01a70.672,70.672,0,0,0-.293,18.633c0.671,5.553,1.275,11.013.705,16.585a18.9,18.9,0,0,0,.048,3.821c0.269,2.623,1.047,5.26.883,7.845a107,107,0,0,1-1.78,10.97,12.622,12.622,0,0,1,1.277,9.8c-1.087,4.034-1.116,8.393-1.3,12.623-0.218,5.073,1.519,10.149.059,15.246a3.82,3.82,0,0,0,0,1.493c0.72,5.521,1.457,11.038,2.207,16.684-1.679,3.037-1.854,3.5-.713,6.317,1.251,3.094.786,6.747,3.215,9.484,0.395,0.444-.017,1.6-0.053,2.394l-2.89,2.5L51,157.951l-0.654,2.023-4.982-.92-0.315,2.308,3.508,2.084-1.422,2.378,0.647,2.358-2.787,2.454c-1.291,6.138.34,11.479-.139,16.866a15.935,15.935,0,0,1-.547,1.9c-0.429,1.936-.857,3.874-1.2,5.826a2.313,2.313,0,0,0,.235,1.059l2.281,0.694c-0.616,5.379.628,10.487-.549,15.6-1.227,5.325.123,10.7,0.2,15.517l-4.535,6.235,2.529,0.289,1.567,4.6-1.252,1.106v9.954L40.509,253.4h3.049c2.248,3.131,1.486,6.04-.887,8.834a2.469,2.469,0,0,0-.13,1.025l2.224,2.72c0.2,2.863.376,5.472,0.556,8.1l-5.175,4.065c-0.681-2.25.572-4.85-1.086-7.419-1.554,1.355-3.081,2.087-3,4.473l2.789,3.5c-0.064,1.372-.12,2.571-0.2,4.169l5.892-3.012c-1.915,2.948-4.295,4.251-4.215,7.293L36.9,285.048c-2.177,1.285-3.537,2.743-2.579,5.359l1.89-2.634,1.173,2.715,3.009-1.481v6.911l-1.773-.112-0.6-2.635-4.207,5.5,2.684,3.074-3.012,8.2,2.652,2.051c-2.442,1.264-2.481,3.262-1.846,5.442l2.18-.194c1.3,2.841-1.171,3.279-2.32,4.515-0.171,1.334-.342,2.674-0.536,4.181a8.2,8.2,0,0,0,1.151-.585,7.245,7.245,0,0,0,.762-0.784l0.492,0.3-2.641,6.818-3.348.81,1.689,6.935-1.341,1.957,0.419,5.416,1.9,0.644-4.046,4.892c2.493,3.007,2.283,6.214.59,9.346l2.2,1.933-3.461,2.152,2.359,5.582c-0.455,1.354-.83,2.751-1.386,4.07-1.34,3.177-.141,6.457-0.191,9.639-0.083,5.222.376,10.49,0.271,15.751-0.023,1.16-.262,2.5.209,3.451,1.084,2.195.632,4.184-.256,6.123A13.1,13.1,0,0,1,29.6,418.8a7.324,7.324,0,0,0-.014,2.332,29.478,29.478,0,0,1,.314,4.924,54.9,54.9,0,0,0,.209,11.142,19.176,19.176,0,0,1,.108,2.336,36.422,36.422,0,0,0-.189,4.961,23.04,23.04,0,0,0,1.21,4.194l-0.928,1.228c2.371,1.684,4.362,1.509,6.077-.185l3.2,3.871-1.207,1.725L39.834,459l-5.623-1.863v-5.341l-4.489,1.855,1.1,10.325-0.911,3.058,0.579,0.037v12.776l1.261,1.833c-0.646,1.767-1.591,3.255-1.655,4.78-0.1,2.367.475,4.694,0.39,7.165-0.143,4.15,2.391,8.226.734,12.556,1.913,2.376-1.079,4.763.021,7.139l1.7,1.713L33,514.969c-0.531,1.152-1.764,2.532-1.476,3.419,1.473,4.55-.785,9.109.4,13.65,0.986,3.782,1.5,7.688,2.244,11.682l-2,6.04a22.182,22.182,0,0,1,.769,3.431c0.16,3.771.671,7.607,0.182,11.3-0.522,3.943.566,7.739,0.073,11.711-0.506,4.078.474,8.351,0.886,12.53,0.124,1.258.787,2.179,2.283,1.978,1.6-1.9-.595-2.913-0.777-3.54,0.915-3.558,2.076-6.383,2.285-9.276,0.318-4.39-.026-8.827-0.087-13.207l-3.024-4.143,4.027-.946-2.352-1.129,2.31-3.942L36.2,550.074l2.476-3.566-1.326-2.059,0.553-.543,2.6,1.19c0.513,8.011,1.007,15.6,1.48,23.179,0.36,5.77.523,11.559,1.1,17.307a47.458,47.458,0,0,1-.8,12.371l2.95,6.871c-2.777,5.989-1.919,12.313-2.39,18.172L40,626.032c-2.269-.042-2.44-1.779-2.84-3.324l1.069-.946c-0.078-3.731-.551-7.063-0.129-10.278,0.777-5.921.285-11.706-.573-18.021l-3.913-.352c-1.325,2.508.074,3.909,0.661,4.822l-1.513,5.7,2.295,2.6L34.3,610.442l1.121,0.954c-0.489,1.309-1.257,2.5-1.331,3.726-0.208,3.483.267,7.047-.281,10.459-0.54,3.359.617,6.8-.758,10.061a1.738,1.738,0,0,0,.111,1.456c1.463,1.945.166,3.812-.2,5.787l1.817,2.9c-1.02,2,.3,4.56-1.671,6.113l1.35,3.879,2.821,1.187,1.958-6.317-2.551-5.967,2-3.216-2.772-3.372,3.721,0.3c-2.07-3.566-2.07-3.566.077-6.559l-1.647-1.859,1.882-4,2.844,0.444a196.352,196.352,0,0,1,.15,20.054c-0.1,2.954-1.266,6.105-.551,8.794,0.835,3.14-.294,5.794-0.39,8.663-0.05,1.5.015,3,0,4.5-0.032,4.733.129,9.433-.664,14.183-0.573,3.432.174,7.074,0.23,10.624,0.047,2.947-.056,5.9-0.083,8.846a6.242,6.242,0,0,0,.088.827l1.594,2.326-1.558,1.254L42.764,720.2l1.717,1.33c-2.929,2.016-.328,5.569-2.347,7.4l1.238,3.969-1.564,5.438,2.987,2.49v2.532H42.277v3.192l2.469,1.011-2.479.874c0.756,1.38.838,2.521-.625,3.057-3.486-4.465-.171-9.393-1.339-13.673,0.553-1.925,1.037-3.612,1.519-5.291l-4.446-.534v-8.153l-3.815-1.9a33.933,33.933,0,0,1-.518,5.091c-0.421,1.606,1.97,1.964,1.237,3.852-0.507,1.305.131,3.056,0.281,4.9l2.038,1.083-3.528,6.229c-0.316,4.249-.962,8.692.168,12.723,1.216,4.342.161,8.384,0.014,12.535-0.163,4.607-1.128,9.193-1.179,13.795-0.17,15.149-.088,30.3-0.1,45.451,0,2.331-.449,4.8.159,6.963,1.311,4.673.419,9.028-.949,13.619l1.511,3.45a18.462,18.462,0,0,0-.6,6.475c0.112,1.634.725,3.238,0.8,4.87,0.142,2.991.017,5.993,0.072,8.989,0.056,3.073-.72,6.043-0.3,9.232,0.4,3.088-1,6.265-.014,9.6a14.742,14.742,0,0,1-.031,6.673,5.97,5.97,0,0,0,1.845,6.061,11.318,11.318,0,0,0-1.439,3.092c-0.454,3.512-1.295,7.146-.8,10.56s-0.575,6.437-.759,9.617l1.214,3.817c0.6,3.692-1.79,7.468.079,11.515l4.228-3.1-0.056-.056c2.6,2.683,3.661,6.176,4.739,8.606,0.354,4.037.627,7.144,0.946,10.777-2.035,4.1.944,8.491,0.569,13.569l-1.318,1.025c1.1,5.243-.257,10.628.141,16.023a66.564,66.564,0,0,1,.248,8.158c-0.249,5.23.639,10.51,0.619,15.77-0.019,5.1.985,10.26-.774,15.32a6.251,6.251,0,0,0,.077,3.92c2.088,5.65,1.514,11.56,1.585,17.33a19.041,19.041,0,0,0,1.882,8.91c0.812,1.58,1.965,3.17.874,5.11-0.685.35-1.361,0.68-1.764,0.89,1.065,2.4,2.095,4.73,3.215,7.26-0.417.91-.891,1.95-1.3,2.83-1.218.54-2.237,1-3.185,1.42C43.677,1077.43,43.822,1078.71,43.967,1080Zm-9.68-410.837c-1.089,5.918.049,11.586-1.25,16.881l1.211,1.966v11.644c1.918-2.868,3.009-4.961,3.223-7.287v-9.593l0.569-.029-2.056-6.226c0.8-2.321,1.7-4.8.375-7.356H34.287Zm9.912,93.58-1.774,1.349c-1.238,3.143.356,5.443,1.527,7.992-0.535.461-1.395,0.852-1.41,1.273-0.132,3.5-.107,7.013-0.132,10.521-0.006.781,0.022,1.565-.051,2.34a7.829,7.829,0,0,0-.343,1.927c0.869,4.532-.75,9.115.325,13.632a2.107,2.107,0,0,1,.157.939c-1.434,5-.221,10.121-0.651,15.8l-1.875,1.262c3.986,3.84,3.1,8.234,1.468,12.917l-1.886.244-1.621-4.716,2.567,0.3a1.678,1.678,0,0,0,.249-0.827,9.71,9.71,0,0,1-1.934-7.778c0.221-1.377-.364-2.883-0.61-4.507,0.238-1.395.946-3.076,0.7-4.6-0.542-3.341-.332-6.71-0.663-10.056-0.466-4.717-.725-9.542.4-14.337a18.968,18.968,0,0,0-.382-10.351l2.613-11.411-0.436.025c-0.134-3.1-.333-6.209-0.349-9.314,0-.686.644-1.375,1.2-2.471ZM37,939.028l0.761-8.657h2.821l-2.641-1.614-0.489-8.771L39.488,907.6l0.943,0.893c1.5-2.146-1.279-3.006-1.392-5.165,1.266-2.536-.29-6.565,3.229-8.955a33.916,33.916,0,0,1-.237,15.016c0.575,2.25,1.142,4.472,1.709,6.694-0.3,1.844-2.225,3.208-1.145,5.582,0.394,0.867-.963,2.531-1.582,3.975l1.3,3.895c-0.494,3.878-.868,6.821-1.254,9.852l-4.108-.414ZM34.676,488.453l3.533-1.624,1.357,5.467-3.593,3.277,3.8,0.866v5.07c-1.394,1.62-2.668,3.561-5.463,1.392l1.522-3.992-1.822-4.116,2.629-3.183ZM34.282,376.5a12.87,12.87,0,0,0,.153-3.441c-0.264-1.132-.657-2.07.507-3.059l3.89,10.051-0.29,4.776-4.1,4.264c-0.744-2.854-.451-5.163-0.261-7.841l2.438,0.222C37.8,378.857,36.233,377.5,34.282,376.5ZM32.944,515.031l2.739-.23c-0.889-2.593,2.124-4.624.561-7.247a1.275,1.275,0,0,1,.431-0.852c0.829-.86,1.7-1.679,3.4-3.337l-1.012,13.916a2.508,2.508,0,0,1-.975.515,22.269,22.269,0,0,1-2.813.032L33,514.969Z"/>
</svg>
