<svg xmlns="http://www.w3.org/2000/svg" width="462" height="445" viewBox="0 0 462 445">
  <metadata><?xpacket begin="﻿" id="W5M0MpCehiHzreSzNTczkc9d"?>
<x:xmpmeta xmlns:x="adobe:ns:meta/" x:xmptk="Adobe XMP Core 5.6-c138 79.159824, 2016/09/14-01:09:01        ">
   <rdf:RDF xmlns:rdf="http://www.w3.org/1999/02/22-rdf-syntax-ns#">
      <rdf:Description rdf:about=""/>
   </rdf:RDF>
</x:xmpmeta>
                                                                                                    
                                                                                                    
                                                                                                    
                                                                                                    
                                                                                                    
                                                                                                    
                                                                                                    
                                                                                                    
                                                                                                    
                                                                                                    
                                                                                                    
                                                                                                    
                                                                                                    
                                                                                                    
                                                                                                    
                                                                                                    
                                                                                                    
                                                                                                    
                                                                                                    
                                                                                                    
                           
<?xpacket end="w"?></metadata>
<defs>
    <style>
      .cls-1 {
        fill: #0b0b0b;
        fill-rule: evenodd;
      }
    </style>
  </defs>
  <path class="cls-1" d="M462,59.369c-1.222,3.538-2.6,7.031-3.642,10.623q-12.531,43.365-24.954,86.761-4.239,14.744-8.532,29.472a4.946,4.946,0,0,1-.6.971h-3.915c-0.92-1.825-1.992-3.953-3.3-6.538l-3.277-2.058-6.615,16.061c0.613,0.432,1.247.877,2.324,1.634l6.95-6.6,5.665,5.15q-0.7,3.163-1.353,6.1l-3.245,1.907c0.02,1.928,2.665,3.661.315,6.128l-4.885-1.689,2.455,3.273-6.89,4.329-3.668-.569-2.694,2.449v3.332l-3.037,8.254,4.261,5.069,4.526-7.416c-0.281-1.149-.505-2.069-0.875-3.584l5.266,0.377c1.342,6.7-2.465,11.671-3.551,17.523l-4.155-.253c-0.091.242-.181,0.484-0.272,0.727l3.489,2.285-1.773,3.372-3.831-.421-0.123-.887,2.308-1.076-4.5-6.867v6.548c-0.781.677-1.757,1.525-2.918,2.534l-1.64-1.445-4.377,19c2.955-.168,2.678-3.313,4.875-4.3,3.486-.763,4.18,3.342,6.943,4.438l-3.936,4.277,2.579,0.744-0.709.953-6.639-.651-1.914,2.064-3.124-.479c-0.247,2.945-.5,5.919-0.788,9.386l6.733,1.73,2.07,2.344-0.356.579-3.651-1.805c0.24,1.427.361,2.145,0.5,2.953l-3.322,1-2.642-3.342,0.374,3.635-1.756,2.045,3.544,6.714,1.909-3.511h1.648a1.726,1.726,0,0,1,.461.517,145.2,145.2,0,0,1-8.36,26.939l-4.182.9,0.057,0.815h3.4c0.1,0.571.207,1.187,0.339,1.94l-5.138.9,4.313,2.6c-2.529,9.769-5.434,19.5-8.205,29.271-2.8,9.862-5.772,19.674-8.609,29.525-2.792,9.692-5.487,19.412-8.267,29.108-2.809,9.8-5.671,19.582-8.651,29.857a41.8,41.8,0,0,1-4.09-2.738c-8.777-7.643-17.469-15.384-26.267-23-11.055-9.572-22.212-19.024-33.274-28.588-6.415-5.546-12.686-11.258-19.1-16.808-8.543-7.395-17.179-14.681-25.737-22.058-5.792-4.994-11.5-10.088-17.277-15.1-9.17-7.942-18.379-15.837-27.552-23.776-5.657-4.895-11.266-9.846-16.916-14.749-7.15-6.2-14.344-12.359-21.475-18.585-6.385-5.574-12.674-11.257-19.072-16.815-6.142-5.335-12.385-10.552-18.553-15.856-5.418-4.659-10.784-9.379-16.192-14.051Q90.979,220.821,77,208.782c-5.656-4.9-11.259-9.854-16.909-14.756-7.029-6.1-14.1-12.152-21.123-18.256-5.9-5.125-11.71-10.351-17.648-15.43C14.264,154.3,7.112,148.372,0,142.4v-1l23.691-19.451,1.978-4.759L447.694,0c0.556,1.815,1.068,3.191,1.4,4.609,3.026,13.031,5.977,26.079,9.046,39.1,1.159,4.917,2.568,9.775,3.863,14.66v1ZM379.133,210.3c-0.243-2.116-1.026-4.22-.581-6.022a8.244,8.244,0,0,0-2.965-8.844l4.069-6.123,3.278,1.477c0.251-2.832.51-5.771,0.77-8.71-2.887-.464-5.492,2.154-8.456.835-0.041-.682-0.07-1.171-0.107-1.789,3.239-1.984,7.514-2.871,8.347-7.288l2.787-1.06c2.31-4.056,2.539-8.331,2.873-12.545l1.387-2.173c-0.214-2.315-.677-3.831-0.421-5.213,0.7-3.8.588-7.731,1.856-11.433a47.385,47.385,0,0,0,2.712-15.191l-5.06-8-2.278-1.409c0.256-2,.458-3.587.655-5.124-0.934-.568-1.469-0.948-2.049-1.232-0.729-.357-1.5-0.635-2.051-0.866-3.819.993-5.886,0.594-7.032-1.465,0.074-.568.177-1.365,0.169-1.3l4.37-4.409-4.48-5.8-5.05-.708c-0.524,1.14-1.048,2.281-1.63,3.548l-4.125-1.02-8.667,2.9c-0.28,1.527-.569,3.1-0.922,5.028a50.64,50.64,0,0,1-7.331.916c-2.962-.044-4.866,1.078-5.726,3.753l-3.588-.174c0.29-1.326.492-2.255,0.683-3.129l-2.5-2.847c-2.065-.791-4.931.033-5.049-3.93l2.653-2.3c2.321-.763,4.861.543,6.172-1.93-0.924-3.227-1.828-6.383-2.444-8.537,0.273-2.766.447-4.53,0.56-5.67l-3.658-5.624-4.659-2.172c-5.868.094-10.23,2.572-15.1,2.716a19.249,19.249,0,0,0-2.877.521c-0.169,3.05-.325,5.861-0.5,9.106h-3.591l-1.207,1.309c-6.438-2.489-12.566.979-18.571,0.138l-3.774,2.575c-0.153,1.878-.318,3.9-0.487,5.988h-8.231V92.9h3.324l-2.895-2.781-4.306,2.094c0.2,1.225.374,2.307,0.531,3.28L272.174,97.2c0.562,3.06-1.039,9.876-2.6,10.806l-2.427-1.516c-1.59.442-3.36,1.832-5-.791a8.894,8.894,0,0,0,.645-1.923,10.814,10.814,0,0,0-.175-2.284l6.126-2.706,3.55-5.75-3.262-2.691-3.189,2.135-3.209-1.1-4.417,3.08c0.241,1.764.426,3.128,0.626,4.6-3.17.365-2.2-2.709-3.766-3.631h-5.4l-4.324,3.336c2.754,2.575,5.258,4.828,7.661,7.183,2.453,2.405,4.806,4.911,7.308,7.48l-2.3,2.047-5.868-4.021-3.737-.173c-4.546-2.787-8.325-5.589-13.484-6.519-0.163,1.758-.3,3.273-0.5,5.343-8.44-.764-16.66,2.133-25.969.456l-20.326,4.065-1.291,4.229c1.533,2.694,2.841,4.991,3.84,6.748,0.668,2.24-.295,4.2,1.59,6.358,0.068-1.551.1-2.355,0.169-3.85a8.737,8.737,0,0,0,1.946,1.744,9.576,9.576,0,0,0,2.416.311c-0.133,2.1-.251,3.963-0.379,5.989l-11.367,3.714c-2.8-4.656-3.081-5.734-2.868-10.782l1.739-2.662c-1.562-3.589-.82-8.508-6.274-8.938-0.795,1.773-1.46,3.258-1.866,4.164l-4.531,2.408-7.11,1.022c0,0.263,0,.526-0.008.789l3.575,0.981c-1.051,2.928-.954,3.082-3.336,4.567-2.239,1.4-3.6,3.059-2.937,6.013-4.065-1.239-4.4-5.263-7.606-7.6-5.294-.118-11,1.52-17,4.325l2.125,6.241-4.369-.319-1.181-4.85c-1.43,1.848-2.67,3.324-3.767,4.9-1.9,2.726-3.649,5.5-7.323,6.215-1.17.228-2.2,1.17-3.417,1.855,1.584,2.838,4.448,2.466,6.476,3.537l2.252,4.425-7.782,9.457c-3.552-1.636-5.494-4.554-7.62-7.055-2.753-.511-4.968.39-7.145,1.621l1.258,8.243-0.689.982c0.383,2.334.71,4.325,1.18,7.191l2.417,2.649,2.4,5.359,3.383-2.248,6.929,3.831,4.614-1.839,8.371,9.095c-0.08,1.838-.157,3.587-0.25,5.71l-6.372,2.4L118.7,212.106l1.863,1.407V214.8c1.838,2.032,3.241,3.577,4.638,5.128,3.407,3.78,6.677,7.7,10.279,11.28a14.65,14.65,0,0,1,3.762,5.007c0.627,1.559,2.288,2.734,3.591,3.973,0.667,0.635,1.655.931,2.331,1.559,2.77,2.577,5.476,5.222,7.7,7.354h5.85l3.85-3.526,5.509,7.014c-3.489,2.874-3.893,3.06-4.551,2.388v-3.545c-1.27,2.023-1.912,3.044-2.6,4.136,0.893,0.623,1.544,1.11,2.226,1.546,0.8,0.515,1.634.986,2.3,1.382,5.277-2.036,9.18-6.293,14.542-6.795,1.58,2.19,3.082,4.271,4.86,6.737l-6.086,1.95-4.1-2.415-7.109.944c-0.222,1.444-.413,2.684-0.61,3.969l8.243,7.815,5.055-4.135,1.443,1.044c-1.213,1.831-2.339,3.529-3.731,5.628,3.991-.014,6.041,1.988,7.445,4.829,0.963,1.949,2.529,3.27,4.032,4.793a60.914,60.914,0,0,0,9.225,8.019,4.952,4.952,0,0,1,1.2,1.514c0.373,0.585.658,1.225,0.983,1.844l2.366,0.335,6.57,6.642c3.213,0.682,3.175.717,4.948,2.655,2.568,2.808,5.208,5.535,9.388,5.756a2.64,2.64,0,0,1,.839.832c-0.145.925-.313,2-0.542,3.468h4.206c0.318,1.178.61,2.257,0.9,3.338l3.941,0.375c1.937,1.512,3.324,3.892,6.258,2.344l-2.33-2.939v-5.05l2.45-1.487,7-11.52-1.949.192-1.5-3.655,4.774-3.095,10.062,6.811a19.385,19.385,0,0,1-6.773,8.942l-3.2.5c-5.4,5.133-8.4,10.881-5.818,18.355l5.056,1.669,1.2,2.513c3.818,0.562,2.664-3.142,4.81-4.463H258c-0.186,1.462-.323,2.541-0.458,3.6l4.092,3.517,3.544-3.3c-2.2-1.791-3.687-3.464-2.516-6.031l-4.6-2.874c0.885-2.477,2.6-2.355,4.251-1.988a17.042,17.042,0,0,1,2.7,1.262c2.076,0.88,3.891.816,5.04-1.5a1.41,1.41,0,0,1,.628-0.318c0.375,1.133.735,2.222,1.108,3.353l-4.1,8.61c2.2,0.612,4.678,1.388,6.648,3.711l-2.5,3.2c0.8,1.671,1.577,3.295,2.26,4.72l10.706,8.778c0.14-1.813.24-3.116,0.383-4.981l6.568-4.868c0.308-1.009.687-2.252,1.074-3.522l-1.7-2.3V330.5l3.672-2.438,4.242,3.757q-2.474,3.695-4.649,6.948l2.264,2.633,7.211,3.668c0.1-1.452.182-2.731,0.262-3.918l3.941-2.726,13.977,10.231,2.61-2.786,4.071-1.289c-2.029-3.566-2.26-4.793-1.113-6.158,1.3-1.543,2.841-1.451,4.707-.372,0.4,1.31.853,2.774,1.534,4.99l4.247-4.275c-0.906-1.464-1.5-2.422-2.247-3.631l5.053-2.508c-0.51-1.246-1-2.447-1.493-3.641,2.423-2.232,5.153-1.6,7.839-.748,0.784-2.976,1.529-5.8,2.119-8.039l-0.909-1.408,4.868-8.052-0.58-.459c0.69-1.582,1.357-3.113,1.869-4.286-0.536-1.372-.879-2.251-1.2-3.07l1.19-1.041c-0.082-1.443-3.043-1.056-2.007-3.421l5.059,2.09c-1-1.892-1.247-3.178-2-3.643-2.434-1.5-5.055-2.7-7.477-3.953-2.183,1.312-.435,3.085-0.821,4.91l-3.472.644-4.639-3.8c0.222-1.41.41-2.605,0.619-3.936-3.728.634-3.728,0.634-4.784-2.485l3.921-4.33-3.227-2.614q0.534-3.457,1.119-7.237l-3.015-3.7c0.368-1.918.7-3.632,1.1-5.714a8.76,8.76,0,0,1-7.411-3.082c-2.183-4.136-2-7.679,1.015-10.529-0.578-2.393-1.08-4.472-1.605-6.643l2.761-3.941a6.91,6.91,0,0,1,5.808,5.966l4.394,3.946a12.26,12.26,0,0,0,3.087,8.2l4.755-4.361,4.417,2.449-3.823,5.437c1.265,1.836,3.088,1.268,4.667,1.287a8.165,8.165,0,0,1,5.825,2.4c0.958,0.928,1.865,1.91,2.857,2.8,0.932,0.835,1.955,1.3,3.069.049-1.594-3.8-.514-7.335,1.03-10.949,1.286-3.01,2.088-6.226,3.107-9.35,0.255-.784.518-1.565,0.781-2.347,1.138-3.386,2.333-6.754,3.386-10.167,0.36-1.17.169-2.518,0.567-3.667,1.921-5.546,3.957-11.051,5.919-16.477l-2.657-2.325C377.711,212.3,378.285,211.493,379.133,210.3Zm-26.012,67.88c-0.254,2.026-.49,3.912-0.738,5.89,3.482,0.64,6.817,2.412,10.862.587-0.648-1.438-1.212-2.694-1.776-3.947l1.276-1.9c-3.981-2.125-7.978-2.709-12.015-3.112a3.274,3.274,0,0,0-.635,1Zm3.273,49.728,0.563,0.441,1.381-1.194h8.233L362,323.092h-3.805ZM150.025,221.444v-4.469c2.413-1.54,4.885-.088,7.4-0.546,3.257,3.58,6.479,7.12,9.95,10.936a2.529,2.529,0,0,1-2.913,1.577c-0.611,1.9-1.251,3.886-1.866,5.794l1.742,3.165-5.19,1.786-3.374-5.038c0.482-1.059,1.07-2.349,1.649-3.622-1-2.416-2.042-4.938-3.177-7.68l-4.264-1.951ZM312.986,109.5c-1.992,3.169-5.138,1.415-7.533,2.449-2.313,1-5.118.855-7.862,1.235-0.391-1.021-.8-2.077-1.217-3.184l1.485-1.284-6.525-6.48c0.28-1.2.648-2.781,1.119-4.8l6.654,1.378c0.475,1.092.923,2.122,1.456,3.349l6.184,1.654Zm60.8,109.364-5.112,5.6-4.009-.825-3.617,5.144-8.466,2.349c-1.864-2.969,1.054-5.136,1.641-7.657,0.621-2.669,2.06-5.147,3.363-8.232,1.2,1.338,2.1,2.351,3.251,3.636,2.032-1.157,4.886-.8,7.412-2.275C370.344,215.373,371.657,218.05,373.781,218.859ZM329.458,302.3l-4.149-2.4,2.07-.765v-2.776l4.2,3.193c-0.032.633-.056,1.09-0.087,1.684l9.629,3.857c1.057,1.7,2.528,3.372,1.418,6.137-1.624-.06-3.777-1.559-4.936,1.031l4.494,0.52c-0.7,1.45-1.227,2.547-1.715,3.558-6.141-.159-8.55-5.148-12.612-8.615C328.282,306.085,328.79,304.449,329.458,302.3ZM196.9,266.843c0.237,4.89-.572,8.956,1.95,12.517a2.663,2.663,0,0,1,.031,1.937,3.173,3.173,0,0,1-1.023,1.6,4.851,4.851,0,0,1-1.649.542c-1.888-2.243-3.631-4.314-5.373-6.386-2.075-2.737-2.337-5.842-1.265-9.2a18.465,18.465,0,0,0,.414-4.9c0.062-1.8.014-3.6,0.014-5.612l3.8-.955C194.062,260.523,193.547,264.562,196.9,266.843Zm-35.3-70.4-3.343-3.125c0.343-2.712.668-5.277,0.886-7l2.53-7.6c2.253-1.894,2.253-1.894,5.08.264-0.249,1.383-.5,2.8-0.786,4.367a28.821,28.821,0,0,1,2.228,2.6,27.5,27.5,0,0,1,1.554,2.971C167.946,192.345,165.863,195.208,161.6,196.448Zm56.022,95.663,3.764,2.581c-1.106-1.935-1.689-2.954-2.74-4.791l4.179-1.305-1-1.137h4.484l6.973,6.642-1.726,2.421-12.755.984C216.779,295.976,216.356,294.458,217.622,292.111ZM257.769,128.86l6.7,3.453c1.2,3.582-.1,6.479-2.81,8.939h-6.9c-0.739-1.857-1.441-3.621-2.1-5.27C254.524,133.388,256.119,131.163,257.769,128.86ZM324.1,167.508l-2.4,2.664-1.757-3.492-3.8,4.3c-3.187,1.2-5-.206-6.977-1.979-0.053-.929-0.117-2.036-0.189-3.3l4.492-4.254h4.919l1.02,2.344,3.627-1.509C324.855,164.065,323.457,165.959,324.1,167.508Zm-10.88,37.738c-0.759,1.249-1.34,2.206-1.782,2.936h-7.775c-3.328-2.724-3.328-2.724-1.356-10.224a5.17,5.17,0,0,1,1.238-.564,3.385,3.385,0,0,1,1.084.046ZM310.445,98.434c-0.559-2.939-.956-5.025-1.388-7.3l1.7-1.853,2.3,2.008,2.406-1.466,1.769,5.687-2,3.338,5.509,5.839-3.826.876Zm1.516,225.677c-0.425-2.552-.794-4.762-1.282-7.694L312.625,318c1.979-1.242,4.251-1.394,6.829.256,0.414,1.6.893,3.458,1.521,5.894-1.1,1.107-2.4,2.417-4.073,4.1Zm58.3-86.973c0.237,0.568.54,1.3,0.977,2.346l-3.024,1.614c0.2,0.881.41,1.77,0.636,2.742l-5.391-.68-4.809-5.556c0.086-.407.279-1.317,0.5-2.362l3.9-.492ZM223.183,118.483l5.869,5.787c-0.043.308-.231,1.647-0.464,3.306-2.377-1.1-3.353-4.112-6.248-2.551-0.486.262-2-.59-2.5-1.3-1.457-2.068-2.641-4.329-3.941-6.529C218.9,115.237,221.069,117.126,223.183,118.483Zm-70.072,53.865v-6.254c4.049-3.5,6.312-3.715,9.919-.8q-2.1,3.489-4.234,7.053h-5.685Zm-3.13,49.048c-0.534,1.365-1.068,2.731-1.713,4.382-3.168.608-3.149,6.445-8.37,5.2l1.708-3.26-2.92-.508a1.59,1.59,0,0,1-.063-0.8c1.008-1.443,2.064-2.851,3.528-4.843a27.13,27.13,0,0,1,7.874-.116Zm-17.287-73.635c-0.76-2.648-1.323-4.6-1.885-6.561l0.8-.256,0.889,2.241,3.813,0.306,3.535,2.665v4.127l-4.429,2.415-3.541-2.8C132.237,148.959,132.52,148.218,132.694,147.761Zm210.151,41.966,7.485-.345,2.2,3.127-4.078,6.347C345.287,196.487,343.2,193.934,342.845,189.727Zm-9.087-54.842c-0.958-1.374-1.423-2.028-1.873-2.691s-0.9-1.359-1.388-2.1c0.653-2.089-.286-5.069,3.383-5.843a13.022,13.022,0,0,1,5.446,6.121C337.546,131.815,335.845,133.193,333.758,134.885Zm-99.726,78.826-1.876,2.5c-0.351,1.464,1.572,3.154-1.184,4.122L228.8,218.7l1.679-2.607-1.631-10.453c1.19,0.091,2.3-.16,2.89.281C233.731,207.4,234.138,209.131,234.032,213.711Zm81.457,78.763H320.2c2.394,1.488,1.858,3.518,1.753,5.931l-1.823,2.006c-3.734-.248-4.641-2.746-6.2-5.007Zm40.849-169.451c-3.778.766-6.606,0.775-9.61-1.6,0.521-1.66,1.068-3.405,1.778-5.669C351.866,117.738,355.272,118.548,356.338,123.023Zm17.288,24.636L371.2,150.4a7.261,7.261,0,0,1-6.092-3.695c-0.668-2.483.622-3.831,2.679-5.087ZM195.94,210.4c0.008,3-2.162,4.471-4.285,6.262l-2.475-1.369c-0.813-2.944-.122-5.117,2.22-6.724C194.136,208.59,194.136,208.59,195.94,210.4Zm51.318-56.634a5.091,5.091,0,0,1,1.689-.36c1.573,0.341,3.12.8,4.766,1.243,1.122,3.137-.61,4.61-2.837,5.829C246.937,158.525,246.937,158.525,247.258,153.765Zm19.5,147.03,2.383-3.17,6.29,1.013c-0.684,1.936-1.313,3.72-1.948,5.519C270.066,305.321,268.853,302.521,266.763,300.8Zm89.871-173.241h2.9c0.748,2.6,2.163,5.095.1,7.594h-5.458C354.982,132.655,355.7,130.431,356.634,127.554ZM269.013,231.291c2.453,1.839,2.281,3.681,1.768,5.945-1.087.048-2.025,0.1-2.963,0.127-0.786.02-1.573,0-2.508,0l-1.357-4.879C265.54,230.627,267.422,231.573,269.013,231.291Zm-56.6,51.726c0.849,3.529,1.342,6.089-1.47,7.9-3.14-1.119-3.14-1.119-4.514-4.241C207.617,284.326,209.977,284.135,212.417,283.017Zm60.512-170.155v2.925c-1.977.225-2.647,3.4-5.615,2.237-0.607-2.179-1.016-4.326,1.111-6.5ZM259.268,312.94c0.961-1.494,1.831-2.847,2.925-4.546l4.1,3.033c-0.668,1.612-1.272,3.072-1.929,4.657C262,316.089,260.646,314.878,259.268,312.94ZM290.8,295.076l3.538-2.946c3.31,2.716,3.31,2.716,1.333,6.777C293.705,298.519,291.241,298.937,290.8,295.076Zm31.2-39.421-1.552,5.6h-3.679l1.649-4.007c-0.118-1.338-.211-2.406-0.316-3.6C320.481,253.178,321.573,254.037,322.006,255.655Zm0.649-94.966-4.2-1.321c-0.024-2.546.033-4.882,2.142-6.621C323.743,154.5,323.252,157.2,322.655,160.689Zm-143.218,9.5c-0.452-.871-0.957-1.842-1.355-2.61,0.877-2.613,3.261-2.865,6.665-.889C183.842,169.012,182.921,171.183,179.437,170.184Zm22.649,75.593c2.459-.824,4.031-0.523,4.938,1.581,0.155,2.221-1.511,3.03-2.807,4.124C201.192,250.258,201.883,248.078,202.086,245.777Zm27.19,6.281c0.881-1.882,2.319-1.822,4.033-1.411l2.487,3.331a1.374,1.374,0,0,1-.01.608c-0.864.677-1.751,1.325-2.777,2.089C231.645,254.989,230.438,253.5,229.276,252.058Z"/>
</svg>
