<svg xmlns="http://www.w3.org/2000/svg" width="417" height="91" viewBox="0 0 417 91">
  <metadata><?xpacket begin="﻿" id="W5M0MpCehiHzreSzNTczkc9d"?>
<x:xmpmeta xmlns:x="adobe:ns:meta/" x:xmptk="Adobe XMP Core 5.6-c138 79.159824, 2016/09/14-01:09:01        ">
   <rdf:RDF xmlns:rdf="http://www.w3.org/1999/02/22-rdf-syntax-ns#">
      <rdf:Description rdf:about=""/>
   </rdf:RDF>
</x:xmpmeta>
                                                                                                    
                                                                                                    
                                                                                                    
                                                                                                    
                                                                                                    
                                                                                                    
                                                                                                    
                                                                                                    
                                                                                                    
                                                                                                    
                                                                                                    
                                                                                                    
                                                                                                    
                                                                                                    
                                                                                                    
                                                                                                    
                                                                                                    
                                                                                                    
                                                                                                    
                                                                                                    
                           
<?xpacket end="w"?></metadata>
<defs>
    <style>
      .cls-1 {
        fill: #0b0b0b;
        fill-rule: evenodd;
      }
    </style>
  </defs>
  <path class="cls-1" d="M12.806,85.109c3.633,0,7.276-.172,10.9.032,10.782,0.607,21.55,1.78,32.334,1.936,9.791,0.142,19.594-.93,29.4-1.153,9.468-.216,18.946.062,28.418-0.056,5.817-.073,11.628-0.642,17.444-0.7,7.645-.08,15.3-0.022,22.939.239,8.283,0.282,16.617.391,24.816,1.45,8.308,1.073,16.512.482,24.783,0.341,8.929-.153,17.869.539,26.8,0.505,7.028-.026,14.069-0.411,21.075-1,3.39-.284,6.711-1.4,10.8-2.3-1.317-.7-2.094-1.491-2.814-1.442-3.776.258-7.537,0.737-11.305,1.114a6.5,6.5,0,0,1-1.753-.032c-2.211-.389-4.405-1.146-6.617-1.2-8.63-.2-17.266-0.12-25.9-0.246-8.463-.124-17.016.319-25.357-0.789-6.293-.836-12.522-2.093-18.908-2.4-7.24-.344-14.337-1.84-21.742-0.105-4.365,1.023-9.234-.294-13.873-0.24-10.647.123-21.293,0.464-31.94,0.66-2.314.043-4.634-.24-6.949-0.218-7.637.072-15.273,0.346-22.908,0.3-8.632-.055-17.263-0.343-25.892-0.593-3.82-.111-7.678-0.828-11.445-0.474-6.463.606-12.518-1.026-18.707-2.255-4.03-.8-8.174-1.014-12.257-1.571-1.5-.2-3.456.313-4.15-2.448H22.535c-2.486-2.2-5.312-2.955-9.266-2.829,3.552-1.326,7.49,1.151,8.839-3.525l-1.938-2.557,5.272-5.361-3.831-2.342,1.38-2.651c-0.765-.221-1.337-0.444-1.93-0.547-3.589-.625-3.39-0.577-2.682-4.179,0.433-2.2.127-4.544,0.167-6.824,0.036-2.064-.865-4.214,1.119-6.073,0.453-.424-0.29-2.134-0.495-3.321L23.3,28.809c-5.913-5.23-12.888-.718-19.214-3.046l0.564-3.146,16.017,2.727,5.1-7.5c6.507-.154,13.924-0.264,21.334-0.553a11.886,11.886,0,0,0,5.288-1.675c1.575,0.351,3.156,1.031,4.723,1,7.484-.161,15.022-0.036,22.427-0.946,6.588-.81,12.993.737,19.45,0.366a122.512,122.512,0,0,1,19.683.316c0.909,0.094,1.936-.975,3.2-1.667,1.711,3.4,4.892,2.391,7.79,2.3,6.22-.2,12.448-0.33,18.654-0.76,3.752-.26,7.465-1.056,11.2-1.555a19.857,19.857,0,0,1,3.926-.23c6.105,0.412,12.2,1.11,18.31,1.3,3.772,0.118,7.574-.8,11.351-0.721,14.2,0.3,28.4.835,42.6,1.262,1.949,0.059,3.9.008,5.85,0.008q0.09-.552.179-1.1l-6.6-1.905c0.03-.165.059-0.33,0.088-0.495h18.845q0.009-.4.016-0.806c-2.869-.149-5.74-0.263-8.607-0.454-8.578-.573-17.177-0.961-25.727-1.828-8.381-.85-16.534,1.353-24.836,1.316-3.322-.015-6.645.166-9.967,0.29-2.288.085-4.576,0.582-6.491-1.465-0.508-.543-1.886-0.32-2.869-0.353C163.51,9.083,151.427,8.7,138.968,8.3c-0.6-2.8-2.943-3.079-5.567-2.767a64.652,64.652,0,0,1-20.73-.659c-2.479-.5-5.146-0.081-8.02-0.081,0.491-3.626,2.3-4.435,4.909-4.4q8.949,0.108,17.9.083c6.652-.029,13.3-0.171,19.954-0.217,18.271-.126,36.543-0.325,54.814-0.3C213.035-.035,223.843.3,234.648,0.58c2.657,0.069,5.306.485,7.959,0.744a16.674,16.674,0,0,0,2.969.277c14.274-1.226,28.494.092,42.742,0.675,15.756,0.645,31.542.561,47.3,1.15,13.051,0.488,25.768-2.046,38.616-3.469,3.048-.338,6.312-0.954,8.8,1.817-0.358,2-1.377,2.12-3.171,2.279-9.217.818-18.4,2-27.6,3.071a2.631,2.631,0,0,0-.4.783c3.522,2.782,7.771,3.233,11.98,3.23,5.818,0,11.638-.426,17.455-0.716,1.972-.1,3.937-0.343,6.205-0.548l1.161,3.422c3.852,2.006,7.923-.977,12.874.178,0.625,2.634,1.389,5.849,2.261,9.519,1.712,0.469,3.64.891,5.493,1.53,3.128,1.078,5.46,2.913,5.978,6.519,0.434,3.022,1.1,6.011,1.728,9.391-4.512.467-5.735,7.55-11.563,6.407-0.8,1.9-1.513,3.608-2.159,5.146l10.273,3.137c-0.522,1.081-1.015,2.1-1.333,2.758l-11.754,3.68c0.368,2.857.368,2.857,4.4,5.434-2.529-.39-4-0.75-5.492-0.82-3.091-.147-6.273-0.621-9.266-0.092-5.4.954-10.638,2.892-16.048,3.754-3.971.633-8.121,0.043-12.171,0.308a62.5,62.5,0,0,0-7.587,1.392,23.216,23.216,0,0,1-2.417.471q-15.144,1.261-30.292,2.477c-1.155.094-2.31,0.2-4.414,0.382l3.135,1.74-2.983,1.423,5.057,2c-0.035.218-.071,0.436-0.106,0.655-6.036,0-12.071.012-18.107-.011a18.99,18.99,0,0,0-2.981-.211c-4.472.731-7.892-1.215-11.37-3.734-1.556-1.128-3.953-1.346-6-1.463a38.566,38.566,0,0,0-6.35.639c-0.206,3.151,1.9,4.137,4,5.585a15.593,15.593,0,0,0-2.3-.245c-0.982.034-2.616-.066-2.832,0.41-1.594,3.517-5.042,3.2-8.006,4.576l8.678,2.206c0.019,0.3.039,0.6,0.058,0.895a3.163,3.163,0,0,1-1.431.662c-6.642-1.414-13.113.958-19.713,0.823-9.3-.191-18.618.184-27.926,0.093q-15.147-.148-30.29-0.729c-9.126-.342-18.237-1.15-27.363-1.386-13.471-.348-26.95-0.487-40.426-0.492-9.66,0-19.321.323-28.98,0.566-9.812.247-19.626,0.908-29.431,0.778-12.759-.17-25.516-0.834-38.262-1.5-6.095-.318-12.165-1.116-18.244-1.723a20.5,20.5,0,0,1-2.266-.479ZM312.721,16.236c13.417,2.181,26.439,2.087,38.964-3.588h-14.57c-1.871,2.743-4.695,1.281-7.114,1.654a44.726,44.726,0,0,1-9.689.5C317.82,14.649,315.254,15.714,312.721,16.236ZM48.153,69.864c-5.127-1.827-7.436-3.379-11.546-7.624l-4.056-.333c-0.592,3.939-4.566,4.528-6.817,7.237l8.058,2.263c2.252-4.335,3.863,2.767,6.646.3C42.1,70.239,45.264,70.478,48.153,69.864Z"/>
</svg>
