<svg xmlns="http://www.w3.org/2000/svg" width="137" height="164" viewBox="0 0 137 164">
  <metadata><?xpacket begin="﻿" id="W5M0MpCehiHzreSzNTczkc9d"?>
<x:xmpmeta xmlns:x="adobe:ns:meta/" x:xmptk="Adobe XMP Core 5.6-c138 79.159824, 2016/09/14-01:09:01        ">
   <rdf:RDF xmlns:rdf="http://www.w3.org/1999/02/22-rdf-syntax-ns#">
      <rdf:Description rdf:about=""/>
   </rdf:RDF>
</x:xmpmeta>
                                                                                                    
                                                                                                    
                                                                                                    
                                                                                                    
                                                                                                    
                                                                                                    
                                                                                                    
                                                                                                    
                                                                                                    
                                                                                                    
                                                                                                    
                                                                                                    
                                                                                                    
                                                                                                    
                                                                                                    
                                                                                                    
                                                                                                    
                                                                                                    
                                                                                                    
                                                                                                    
                           
<?xpacket end="w"?></metadata>
<defs>
    <style>
      .cls-1 {
        fill: #fff;
        fill-rule: evenodd;
      }
    </style>
  </defs>
  <path class="cls-1" d="M125.513,84.367l6.222-2.079c0.209,1.368.373,2.449,0.44,2.886-3.954,2.141-7.574,4.016-11.11,6.039-3.734,2.137-8.022,3.8-10.9,6.8-3.09,3.206-7.245,4.4-10.465,7.3-2.71,2.439-6.773,3.385-10.25,4.966-1.794.816-3.61,1.586-5.425,2.357-2.01.854-3.042,1.765-1.178,3.979,1.19,1.414-.417,2.506-1.459,3.165-2.668,1.687-5.477,3.151-8.211,4.737-6.041,3.5-12.064,7.041-18.112,10.534-1.12.646-2.09,1.287-3.579,0.164-2.779-2.095-4.2-2.088-6.377.248a8.37,8.37,0,0,1-4.132,2.36,15.76,15.76,0,0,0-3.432,1.981,9.84,9.84,0,0,1-2.5,1.555c-6.051,1.4-10.922,5.43-16.76,7.358-2.713.9-4.965,3.1-7.614,4.3a96.575,96.575,0,0,1-9.274,3.274,2.6,2.6,0,0,1-1-.605,7.026,7.026,0,0,1,3.891-4.109A10.231,10.231,0,0,0,7.04,149.7c1.257-1.338,3.287-2.5.894-4.859-0.689-.679.171-2.812,0.079-4.264a2.736,2.736,0,0,0-1.047-1.7c-0.991.27-2.547,0.265-2,2.085,0.239,0.8.392,1.627,0.707,2.392,0.963,2.346-1.7,3.432-1.821,5.385L0,148.252c0.246-6.792.548-13.925,0.73-21.06,0.042-1.625-.473-3.259-0.486-4.891C0.178,114.294.19,106.287,0.18,98.28Q0.164,85.076.161,71.873,0.166,41.6.184,11.317a28.474,28.474,0,0,1,.033-3c0.223-2.089.639-2.18,3.4-.87,0.4-2.556.283-2.332-2.166-3.629C0.588,3.36.46,1.512,0.648,0A7.452,7.452,0,0,0,1.706.845C3.219,1.666,5.52,5.461,6.472,7.128a11.616,11.616,0,0,0,4.143,3.94,2.332,2.332,0,0,0,3.272-1.434,32.491,32.491,0,0,0,.924-3.423c2.636,1.451,5.047,2.75,7.432,4.095q6.738,3.8,13.452,7.644a4.989,4.989,0,0,1,1.676,1.06c3.635,5.17,9.768,6.717,14.6,10.142,3.387,2.4,6.677,4.943,10.107,7.279,7.034,4.792,14.367,9.009,22.71,11.169a7.137,7.137,0,0,1,1.827.813Q96,54.025,105.366,59.675c4.842,2.927,9.632,5.941,14.511,8.8a11.927,11.927,0,0,0,3.325.882,29.512,29.512,0,0,1,12.95,7.14,2.064,2.064,0,0,1,.709,1.644,1.828,1.828,0,0,1-1.506.92c-4.536-.473-7.518,1.779-9.807,5.351-3.184-1.157-5.6,1-8.286,1.97a1.6,1.6,0,0,0,.13,1.235c0.55,0.486,1.575,1.247,1.892,1.054C121.435,87.36,123.452,85.829,125.513,84.367ZM47.758,139.444Q27.024,151.183,6.285,162.916a9.392,9.392,0,0,1-2.269,1,1.3,1.3,0,0,1-1.136-.59,1.3,1.3,0,0,1,.448-1.2,27.052,27.052,0,0,0,9.927-7.535,2.615,2.615,0,0,1,.854-0.5c5.708-2.973,11.311-6.179,17.173-8.812,2.807-1.261,5.907-1.792,8.282-4.01C42.681,138.349,42.723,138.394,47.758,139.444Z"/>
</svg>
