<svg xmlns="http://www.w3.org/2000/svg" width="51" height="1080" viewBox="0 0 51 1080">
  <metadata><?xpacket begin="﻿" id="W5M0MpCehiHzreSzNTczkc9d"?>
<x:xmpmeta xmlns:x="adobe:ns:meta/" x:xmptk="Adobe XMP Core 5.6-c138 79.159824, 2016/09/14-01:09:01        ">
   <rdf:RDF xmlns:rdf="http://www.w3.org/1999/02/22-rdf-syntax-ns#">
      <rdf:Description rdf:about=""/>
   </rdf:RDF>
</x:xmpmeta>
                                                                                                    
                                                                                                    
                                                                                                    
                                                                                                    
                                                                                                    
                                                                                                    
                                                                                                    
                                                                                                    
                                                                                                    
                                                                                                    
                                                                                                    
                                                                                                    
                                                                                                    
                                                                                                    
                                                                                                    
                                                                                                    
                                                                                                    
                                                                                                    
                                                                                                    
                                                                                                    
                           
<?xpacket end="w"?></metadata>
<defs>
    <style>
      .cls-1, .cls-2 {
        fill: #0b0b0b;
      }

      .cls-2 {
        fill-rule: evenodd;
      }
    </style>
  </defs>
  <rect class="cls-1" x="2" y="1078" width="55" height="3"/>
  <path class="cls-2" d="M1.8,0H51V1079.71a13.485,13.485,0,0,1-1.978.29c-13.376-.04-26.753-0.07-40.129-0.18-2.132-.02-4.26-0.4-6.641-0.64-2-4.79,1.286-9.81-1.23-14.31-0.544-.97.058-2.57,0.13-3.86,1.47-1.01,2.765-1.91,4.059-2.8-0.074-.23-0.148-0.47-0.222-0.71-1.2.07-2.391,0.13-3.955,0.21l1.394-2.74c-0.774-.86-1.523-1.7-2.1-2.35,1.624-2.69,3.115-5.16,4.617-7.64-0.7-.06-1.6-0.12-3.208-0.24,0.59-3.87,1.14-7.48,1.786-11.72a4.806,4.806,0,0,1-.931-2.32c0.536-9.69-.733-19.21-2.415-28.71a5.219,5.219,0,0,1-.026-1.98c0.781-3.53,1.629-7.047,2.608-11.222L6.208,985.5c-0.315-2.757.1-5.576-1-7.545-3.06-5.444-3.559-11.138-3.121-17.1,0.012-.161-0.07-0.328-0.071-0.493-0.005-2.3,0-4.6,0-7.44,1.248,3.666,1.248,3.666,3.907,5.9L4.433,938.407c1.4-3.736-.6-8.1-1.356-12.869l1.551-3.561c-1.623-8.48-1.276-13.964,1.078-17.523,1.175,1.3,1.056,4.237,4.34,3.136,0.545-2.913,1.8-6.365-.039-8.924-2.773-3.864-1.911-6.426.944-9.588a6.361,6.361,0,0,0,1.015-7.654c-4.218.385-3.371,4.309-5.63,7.191-1.068-8.962-.121-16.856,1.188-24.831l1.36,16.485,2.957-1.423c0.307-5.013.941-9.645,0.781-14.249-0.191-5.527-1.327-11.02-1.539-16.548-0.138-3.59-.036-7.462,1.178-10.763a23.991,23.991,0,0,0,1.269-13.181c-1.057-5.025-.245-9.465,1.275-14.041a9.956,9.956,0,0,0-.087-7.294,7.161,7.161,0,0,1-.3-4.307,48.484,48.484,0,0,0,.223-23.487,73.815,73.815,0,0,0-2.331-7.1l2.408-.925-1.99-14.359c1.858-5.016.933-10.706-.546-16.612l1.169-4.056-2.08-6.069-2.345-.616a40.374,40.374,0,0,1,.051-5.329,34.829,34.829,0,0,1,1.33-4.745L9.6,715.11l0.7-10.662c-2.575-3.891-.976-8.616-0.921-12.7-0.841-2.111-4.617-1.066-3.46-4.537l5.147,0.89,1.052-1.374-3.072-1.4,1.876-2.549-2.41-1.088,1.437-8.5-4.273-.908,5.422-3.836c-0.277-4.02-5.591-5.317-4.585-9.9l5.082-1.049c0.319-1.92.633-3.813,0.921-5.549l-3.382-1.607,2.083-3.022L7.761,644.51C7.553,627.576,9,611.366,8.986,595.126,8.977,578.715,8.36,562.3,8.008,545.855l3.861-2.577v37.054l2.714-.585c0-1.818-.048-3.285.008-4.748,0.432-11.3,1.048-22.589,1.275-33.889,0.164-8.151-.382-16.316-0.249-24.469,0.176-10.794.773-21.58,1.038-32.373a68.52,68.52,0,0,0-.636-8.922c-0.335-3.128-1.019-6.168.335-9.322,0.61-1.421.31-3.27,0.27-4.922-0.181-7.6-.455-15.2-0.615-22.8-0.091-4.3.078-8.614-.09-12.913a12.439,12.439,0,0,0-1.063-3.52,65.69,65.69,0,0,0,.921-7.346c0.054-5.146-.7-10.36-0.109-15.429,0.929-7.994.44-15.911,0.08-23.865-0.435-9.6-.847-19.2-1.266-28.738,4.692-4.359,6.018-9.477,5.012-15.461l-4.195.852,2.5-4.583-2.976-1.69c0-1.746-.074-3.4.012-5.053,0.482-9.288-1.657-18.535-.27-27.863a25.278,25.278,0,0,0-.385-8.879c-1.263-5.831-3.01-11.558-4.558-17.328a45.243,45.243,0,0,0,.966-10.868c-0.091-4.148-.715-8.294-0.659-12.435,0.11-8.143.663-16.28,0.785-24.423,0.133-8.949-.229-17.909.048-26.851,0.147-4.739-.012-9.02-4.365-11.628-0.531-5.06-1.56-9.818-1.428-14.544,0.431-15.413-1.8-30.872.781-46.245A19.469,19.469,0,0,0,5.844,117c0.172-4.65.462-9.3,0.467-13.951,0-2.111-.656-4.214-0.842-6.335C5.078,92.272,4.024,87.7,4.688,83.4A30.717,30.717,0,0,0,3.681,70.2a13.568,13.568,0,0,1-.563-4.843c0.27-2.618.963-5.193,1.5-7.882l-1.86-2.2c-0.218-4.63-.554-9.176.567-13.733a10.608,10.608,0,0,0-.23-5.835C1.2,30.5,1.845,25.174,1.894,19.878a6.527,6.527,0,0,1,1.149-3.728c2.45-3.152,2.1-6.487,1.263-10L1.234,3.526ZM23.838,285.267l-1.506-.1a29.347,29.347,0,0,0-.351,4.681c0.5,6.27.642,12.628,1.845,18.773,2.467,12.6-.234,24.743-2.358,36.977-0.413,2.381-.993,4.732-1.729,8.192,2.168-.841,3.875-0.963,4.3-1.763,1.934-3.605,6.371-6.331,4.314-11.729l-1.341,4.216a28.111,28.111,0,0,1-.749-13.3,69.089,69.089,0,0,0-.1-19.85c-0.765-5.591-1.436-11.2-1.981-16.816C23.894,291.469,23.945,288.36,23.838,285.267ZM20.52,196.885q-0.828.1-1.656,0.2c0,2.624-.122,5.256.034,7.87,0.158,2.647.767,5.272,0.853,7.917s-0.344,5.308-.338,7.962,0.185,5.321.451,7.966c0.238,2.362-1.944,4.98.937,7.114a164.3,164.3,0,0,0,.284-35.374C20.96,199.314,20.712,198.1,20.52,196.885Zm-8.94,258.386c0.126,20.416.252,40.832,0.379,61.436-3.616-.307-4.06-2.336-4-4.612q0.237-9.681.586-19.358Q9.159,475.1,9.835,457.46a18.37,18.37,0,0,1,.369-2.287Z"/>
</svg>
