<svg xmlns="http://www.w3.org/2000/svg" width="1920" height="118" viewBox="0 0 1920 118">
  <metadata><?xpacket begin="﻿" id="W5M0MpCehiHzreSzNTczkc9d"?>
<x:xmpmeta xmlns:x="adobe:ns:meta/" x:xmptk="Adobe XMP Core 5.6-c138 79.159824, 2016/09/14-01:09:01        ">
   <rdf:RDF xmlns:rdf="http://www.w3.org/1999/02/22-rdf-syntax-ns#">
      <rdf:Description rdf:about=""/>
   </rdf:RDF>
</x:xmpmeta>
                                                                                                    
                                                                                                    
                                                                                                    
                                                                                                    
                                                                                                    
                                                                                                    
                                                                                                    
                                                                                                    
                                                                                                    
                                                                                                    
                                                                                                    
                                                                                                    
                                                                                                    
                                                                                                    
                                                                                                    
                                                                                                    
                                                                                                    
                                                                                                    
                                                                                                    
                                                                                                    
                           
<?xpacket end="w"?></metadata>
<defs>
    <style>
      .cls-1 {
        fill: #0b0b0b;
        fill-rule: evenodd;
      }
    </style>
  </defs>
  <path class="cls-1" d="M1920,0.167V108.118c-4.76-.058-9.5.022-14.18,1.82-0.88-.54-1.83-1.129-2.11-1.3l-10.09,1.643c1.16,1.351,2.53,2.393,3.13,3.771,0.7,1.6.23,3.238-2.04,3.944-1.24-1.56-2.44-3.07-3.5-4.413l-9.44-2.055c-3.19,3.351-6.97,1.6-10.28.839-0.99-.955-1.69-1.618-2.54-2.433h-10.87c-2.24,1.451-4.43,1.686-7.38.469-1.68-.7-3.29-1.937-5.02-2.111-5.2-.526-10.44-0.959-15.65.279-4.78,1.137-9.61,2.077-14.79,3.181v-4.422c-2.56-.525-2.84,1.811-4.1,2.53l-7.7,1.329c-0.48-2.309-.47-4.707-3.25-5.767-1.08,1.2-2.25,2.5-3.47,3.85,0.74,1.137,1.24,1.891,1.85,2.816-0.62.327-1.15,0.609-1.66,0.88-1.06-1.672-1.99-3.148-3.2-5.062-2.65,2.643-4.91,4.9-7.41,7.4-0.7-.954-1.32-1.8-1.93-2.636-0.58.3-1.16,0.6-1.85,0.959-0.58-1.325-1.16-2.642-1.72-3.932-1.41.523-2.69,1-3.68,1.36-1.3-2.108-2.33-3.767-3.53-5.7-0.6,1.236-.93,1.918-1.43,2.966-2.28-1.97-4.24-3.665-6.2-5.363l-4.39,1.687c-1.66-2.424-4.79-3.339-5.98-6.143a3.15,3.15,0,0,0-1.1-.014c0.51,1.016.98,1.971,1.6,3.213-3.8,2.746-8.54,2.126-12.24,4.489-0.99-2.215-1.81-4.072-3.16-7.086-1.01,3.3-1.65,5.376-2.37,7.692-1.16-1.635-2.22-3.113-3.76-5.265-0.61,3.136,2.7,4.528,1.18,6.737-1.41-.6-2.81-1.2-4.25-1.817-0.74,1.247-1.33,2.229-2.08,3.5-1.85-2.54-6.43-2.083-5.95-6.6l-1.84.144c-0.9-.864-1.71-1.64-2.16-2.062-3.24.286-5.99,0.527-9.14,0.8,0.72-1.034,1.07-1.534,1.45-2.09-0.92-1.175-1.73-2.4-2.73-3.45-2.27-2.364-5.26-1.95-6.99.9-0.4.662-.7,1.389-0.98,1.948-1.77-1-3.27-1.846-4.69-2.651-0.86.773-1.34,1.207-1.66,1.495-1.1-.634-2.15-1.235-3.49-2-0.36,2.145-.65,3.847-0.94,5.537-1.38.2-2.64,0.379-3.84,0.549-0.6-2.02-1.17-3.89-2.07-6.907-0.28,2.412-.43,3.665-0.6,5.132-0.82-.87-1.46-1.542-2.32-2.439-0.75,1.637-1.39,3.021-2.02,4.4l-0.75-.193c-0.07-1.285-.13-2.57-0.21-3.881-1.95.89-3.4,2.9-5.79,2.241-1.5-1.654.52-5.192-3.38-5.5-0.71,1.186-1.44,2.392-2.33,3.86-0.33-.8-0.55-1.3-0.82-1.945-1.05.975-2.07,1.919-3.5,3.246-1.54-2.245-2.84-4.141-4.4-6.43-0.71,1.46-1.2,2.458-1.52,3.11-2.2-.665-4.35-1.324-6.5-1.928a2.822,2.822,0,0,0-.76.8c1.09,0.639,2.16,1.261,3.22,1.914a1.613,1.613,0,0,1,.11.679c-0.38.336-.84,0.745-1.35,1.2l-4.38-2.461c-0.82.586-1.58,1.126-2.27,1.618-0.9-.574-1.6-1.017-2.52-1.6-1.61.866-3.31,1.776-5.16,2.768-0.85-.123-1.82-0.281-2.8-0.408-2.77-.358-5.69-1.43-8.27-0.891-4.36.911-8.5-.126-12.59,0.1-0.83-.935-1.46-1.64-2.04-2.295-6.15,4.31-12.98,3.586-18.38,3.326-2.52-2.1-4.14-3.454-6.04-5.04-1.08,1.579-1.95,2.856-2.86,4.2-1.05-.659-1.73-1.093-2.56-1.616-0.63.359-1.32,0.757-2.04,1.172l-2.08-1.125c-0.7.4-1.36,0.78-1.81,1.039-0.66-.452-0.99-0.675-1.26-0.861-0.64.811-1.13,1.442-1.73,2.206-1.93-1.419-3.66-2.7-5.45-4.013-0.15,1.217-.29,2.352-0.48,3.936-1.87-.967-3.42,2.2-5.36-0.092-0.5.639-.99,1.278-1.68,2.17l-7.36-1.941v0.064c-2.01-.442-4.03-0.884-6.37-1.4-3.95,1.96-8.68-.078-13.16,1.331-4.6,1.445-9.37-.742-14.05-0.223-0.99-1.116-1.96-2.217-2.69-3.047-3.47,1.021-6.58,1.939-10.01,2.947-2.03-1.812-4.85.192-7.35-.969-0.55-.254-1.76,1.2-2.52,1.07-2.41-.424-4.77.55-7.3-0.382-1.75-.645-3.98.233-6.16-0.005a40.2,40.2,0,0,0-10.09-.283,20.986,20.986,0,0,1-3.85.062c-3.16-.134-6.25-0.35-9.1,1.675-1.22.861-3.01,0.907-4.35,1.269-2.8-2.131-4.96-4.791-9.33-4.893,1.28,1.336,2.09,2.177,3.1,3.24l-2.22,1.1c-1.3-1.013-2.38-1.861-3.69-2.886-0.78,1.292-1.25,2.087-1.83,3.054-0.78-.885-1.52-1.723-2.2-2.5l-6.56.522c-1.54-2.781-4.35-2.131-6.82-2.534-0.48.922-.86,1.64-1.2,2.3l-3.23-.164c-0.59-.724-1.1-1.343-1.22-1.486l-6.86,1.419c-0.25-.711-0.41-1.172-0.53-1.529-1.73-.313-3.34-0.6-4.61-0.836-1.66-1.922-3.13-3.632-4.56-5.293l-1.98.289c-3.33-3.224-6.58-6.377-10.27-9.948-0.21,2.071-.34,3.352-0.44,4.286-1.13.527-1.94,0.9-2.74,1.273-0.86-.681-1.7-1.342-2.99-2.361,0.1,1.683.16,2.7,0.21,3.684l-4.66-.555c-0.44-.569-0.96-1.212-1.45-1.873a27.783,27.783,0,0,0-2.97-3.854c-0.53-.492-1.76-0.23-2.92-0.331,0.64,1.218,1.08,2.067,1.5,2.864-0.61.762-1.1,1.376-1.64,2.045,0.44,0.858.86,1.673,1.57,3.067-1.84-.742-3.14-1.268-4.19-1.689-1.16.637-2,1.1-2.73,1.5-1.06-.7-1.87-1.238-2.6-1.721-4.87,1.948-9.63,2.145-12.77.5,1.24-.6,2.41-1.159,3.53-1.694-0.51-2.994-3.29-2.34-4.38-3.82-1.13-1.732-2.26-3.463-3.28-5.031-1.18.3-1.82,0.48-2.46,0.606a0.96,0.96,0,0,1-.37-0.305c-0.22-3.834-.22-3.834-2.36-6.135a19.368,19.368,0,0,1-1.49,3.113c-0.68.939-2.19,1.488-1.09,3.078,0.77-.419,1.38-0.758,2-1.1l0.57,0.756c-2,1.83-3.99,3.66-6.07,5.569,0.77,2.062,1.51,4.051,2.38,6.4-2.62-1.278-4.72-2.3-7.12-3.47-0.51-1.154-1.15-2.612-1.74-3.94-1.72.914-4.15-1.221-5.39,1.476l2.16,0.144c0.56,1.63,1.11,3.23,1.74,5.046h-2.73c-0.26-.614-0.52-1.208-0.71-1.676-0.83.381-1.61,0.739-2.42,1.114-1.3-3.7-1.3-3.7-4.95-5.395v4.4c-0.59.265-1.18,0.536-1.77,0.8l-3.12-2.209c-0.31,1.211-.52,2.08-0.78,3.089-2-2.286-3.82-4.363-5.7-6.522a20.708,20.708,0,0,0-2.62,1.814,3,3,0,0,0-.04,1.513h2.33c0.66,1.132,1.28,2.191,1.92,3.3h-10.32c-1.35-1.612-2.89-3.455-5.02-6,0.26,1.9.39,2.847,0.52,3.791-0.21.1-.41,0.192-0.62,0.288-0.47-.754-0.95-1.508-1.6-2.542-0.41,1.524-.65,2.419-0.88,3.291-2.2-.328-2.62-3.624-5.89-2.858,1.28,1.435,2.2,2.468,3.13,3.5-1,2.748-3.38.049-4.46,1.584-0.98-1.063-1.74-1.882-2.64-2.847-1.4.745-2.66,1.42-3.86,2.06l-2.79-1.4c0.94-1.53,1.79-2.852,2.56-4.215a2.984,2.984,0,0,0-.38-1.192l-3.62.474v2.652l-4.36.355c0.74,1.267,1.18,2.04,1.76,3.033l-3.36,2.084c-0.88-.507-1.55-0.891-1.86-1.07-0.9.43-1.39,0.663-1.8,0.856-1.48-1.686-2.72-3.095-3.94-4.485-0.83.7-1.25,1.052-1.72,1.441-0.34-.737-0.57-1.247-0.81-1.764-0.57.887-1.08,1.664-1.67,2.586-1.46-.9-2.63-1.623-3.77-2.328-0.11-.841-0.22-1.63-0.33-2.42-2.09.282-2.92-.995-3.61-2.332-0.45-.872-0.58-1.923-1.06-2.766a6.869,6.869,0,0,0-1.95-1.323c0.92,3.806,3.43,6.39,3.31,9.92-1.44.3-2.75,0.228-3.58,0.825-0.88.642-1.32,1.909-1.98,2.956-0.49-.4-0.97-0.8-0.99-0.812-2.58.776-4.85,1.457-6.87,2.067-1.05-1.1-1.74-1.831-2.55-2.683-0.46,1.014-.72,1.6-0.81,1.8-1.75,0-3.23-.092-4.7.02-2.79.212-5.57,0.739-8.36,0.755-2.12.012-4.23-.794-6.35-0.817a51.926,51.926,0,0,0-6.47.658c-1.82-1.672-3.41-3.124-4.96-4.546,0.16-.271.35-0.576,0.85-1.391l-3.95,1.005c-2.29-.722-4.22-1.327-6.14-1.933-0.11-.567-0.22-1.158-0.32-1.691l-5.55-.28-4.94.693c-2.21-1.658-3.76-2.818-5.88-4.409l14.76-.858c-4.13-1.147-8.2-2.435-12.19-.9-4.97-.987-9.77-2.069-14.62-2.839a10.261,10.261,0,0,0-5.64.334c-5.07,2.4-10.62,1.431-15.81,2.72-5.62-1.624-11.14.28-16.65,0.739a72.685,72.685,0,0,1-12.14-.019c-1.5,2.53-4.22,1.048-5.98,2.113-0.71-1.048-1.22-1.808-1.95-2.885-3.34,3.308-7.25,3.952-11.38,4.038-3.13.066-6.38-.161-9.35,0.609a19.809,19.809,0,0,1-10.2-.008c-0.5.41-.94,0.773-1.27,1.05-0.69-.541-1.19-0.935-1.87-1.474-3.33,2.376-7.17,1.851-10.84,1.81-1.29-.014-2.52.112-3.78,0.153-5.61.182-11.28,0.857-15.96-.479l-11.69,1.819c1.82,0.767,3.65.572,5.37,0.932a34.925,34.925,0,0,1,5.41,2.108c-0.85.619-1.57,1.581-2.33,1.62a65.564,65.564,0,0,1-7.44-.195c-1.31-.083-2.72-0.829-3.87-0.506-4.42,1.239-8.91.725-13.37,0.941-1.46.071-2.92,0.79-4.34,0.7-5.05-.327-10.092-0.877-15.471-1.373l-0.84-1.82c2.425-1.419,4.386.21,6.438,1.006,0.284-1.026.444-1.6,0.607-2.194l-3.87-1.308a23.931,23.931,0,0,0-3.472.981c-1.151.518-2.142,1.382-3.275,1.953a7.685,7.685,0,0,1-2.792.94c-3.233.223-6.478,0.282-10.856,0.446,4.736-2.383,9.094-1.7,13.732-2.93-6.234-.91-16.735-0.59-19.671.464,1.2,1.21,3.723.217,4.594,2.787a20.811,20.811,0,0,0-3.2.39,13.738,13.738,0,0,0-2.368,1.172l-1.212-1.114-3.76,1.486-1.355-3.021,5.139-1.24-1.418-2.178-9.3,1.407L952.7,86.572A12.881,12.881,0,0,1,949.584,88c-1.247.207-2.58-.181-3.865-0.112a17.08,17.08,0,0,0-2.889.642,58.2,58.2,0,0,0,9.374.663c0.559,0.018,1.1.656,2,1.237-4.635.816-8.646,1.824-12.714,2.159-4.647.383-9.344-1.06-14.029,0.106-0.343.085-.838-0.44-1.557-0.85l1.887-1.3-2.124-1.975,2.288-1.1c-3.834-1.454-3.834-1.454-5.407-4.586l-9.832-5.628a2.294,2.294,0,0,0-.9.023,13.431,13.431,0,0,0-1.913.8L912.49,79.6c-2.057.381-20.7,0.813-22.554,0.744-5.9-.219-11.728-1.266-17.657-1.313-2.4-.019-4.789-1.1-7.035.244l-1.774-1.106c-3.1-.185-5.211-0.3-7.32-0.438a33.388,33.388,0,0,0-3.427-.242c-5.186.208-10.369,0.668-15.554,0.692-6.211.028-12.429-.2-18.634-0.5-3.613-.177-7.208-0.722-11.68-1.194-2.835,2.614-6.538-.7-10.327-0.279-3.726.413-7.635,0.537-10.459-1.39l-7.511,2.329a14.821,14.821,0,0,1-1.47-.633c-0.519-.295-1-0.663-1.184-0.791l-1.78.889c-4.215-2.442-4.215-2.442-7.173-1.9l3.751,1.439c-2.885,1.2-5.545,1.568-7.734-.772-1.531,1.482-2.862,3.029-5.142,2.511l-0.546-1.435c-1.574.62-2.888,1.461-4.283,1.627-4.095.489-8.216,0.839-12.337,1-4.326.169-8.667,0.161-12.994,0.016a26.56,26.56,0,0,1-4.82-.983,86.269,86.269,0,0,1-9.253.217,85.977,85.977,0,0,1-9-1.621l-1.555,3.69c-0.528-1.025-.728-1.462-0.973-1.873-0.229-.385-0.5-0.742-0.847-1.237-1.068.965-1.963,1.876-2.976,2.63a2.82,2.82,0,0,1-1.4.036l-1.8-3.4h-4.363c0.053,0.818.095,1.45,0.139,2.115-5.347,3.228-11.062,3.15-16.307,2.43l-3.636,3.742,1.348,1.621c-2.7,2.214-5.282,4.391-7.941,6.476a10.175,10.175,0,0,1-2.467.946c-0.094-1.477-.157-2.478-0.254-4-2.45,1.68-4.578,3.09-7.433,1.661l-2.249-3.652c-0.925,2.383-1.631,4.2-2.363,6.09h-3.734l-2.386-3.817c-1.918,2.96-3.145,4.856-4.494,6.939l-5.777-1.532,1.667-2.545-7.674-1.375c-1.956.885-1.539,3.752-4.182,2.8l-0.807-2.985-8.088-.964a14.58,14.58,0,0,0,1.231,3.156,15.326,15.326,0,0,0,2.5,2.263c-1.2,1.217-2.059,2.556-3.907,1.9-3.429-5.7-4.532-6.585-7.535-5.844l1.824,2.453h-3.712L603.6,92.511l-4.67,1.776c0.089,0.729.206,1.685,0.328,2.681-0.5.467-1.078,1.018-1.662,1.567l-1.106-.9-2.019,1.139-2-2.144a6.119,6.119,0,0,0-4.706,4.928l-2.116-3.414-1.254,4.8c-2.123.2-4.147,2.3-6.481,0.4-0.316-1.249-.624-2.466-1.015-4.014l-2.648,1.472c0.52,1.2.9,2.079,1.547,3.565l-4.537-2.017,1.955-4.319a18.729,18.729,0,0,1-3.953.87,10.686,10.686,0,0,1-2.9-.932c-0.2,1.536-.394,3.067-0.619,4.827-2.671-1.7-.842-4.368-2.053-6.105-1.417.782-2.815,1.575-4.244,2.306a1.786,1.786,0,0,1-.678-0.461c0.393-.47.785-0.938,1.321-1.576-3.063-2.059-4.9,1.384-7.056.834-0.9,1.237-1.56,2.139-2.2,3.014a13.755,13.755,0,0,0-2.84-1.517,9.231,9.231,0,0,0-2.684.1c-0.167-1.411-.3-2.543-0.437-3.686-2.932-1.386-5.66-1.951-8.488-.05-0.161,1.233-.31,2.375-0.469,3.586l-3.277,3.594L531.574,99.2l-4.854-1.62-1.667,3.152-2.242-1.6c-2.009,2.067-4.257,2.839-6.573,1.67l-2.244,1.274c-5.547-1.451-10.958-1.174-16.335-1.231-4.056-.043-8.218.7-12.141,0.008a85.081,85.081,0,0,0-10.377-.747c-2.762-.15-5.522-0.328-7.972-0.474l-1.39-1.8h-3.04l-6.793-5.889,5.752,0.757,2.847,3,1.234-2.374,5.3,1.392,1.343-1.071c-0.563-2.682-4.119.713-3.926-2.8l3.653-1.812c-3.449-2.449-5.958-.964-8.172.827l-7.949-1.633-7.262,5.682-0.279-.654-6.265,1.389c0.637-2.186,1.175-4.035,1.788-6.141h-2.582c0.166,1.182.3,2.112,0.41,2.928-2.275,2.312-4.971.291-7.017,0.948-2.776.892-4.813-2.832-7.572-.382,0.184,1.094.387,2.3,0.579,3.438l-5.389.24c1.294-.913,1.764-1.234,2.223-1.571s0.9-.682,1.343-1.024c-1.463-.489-3-0.677-3.758,0-1.663,1.5-3.385.991-5.141,0.786a3.622,3.622,0,0,1-.868-1.356l4.885-.827-5.433-2.843c0.045-2.163,2.421-3.83.946-6.166l-1.273,2.265-5.466.339c-0.5.888-.974,1.719-1.523,2.689l-7.7-1.533c0.4,2.2,2.531,2.232,3.81,3.28-2.624,1.4-4.053-1.563-6.472-1.392l0.518-2.469c2.619-2.025,5.007,1.165,7.929-.821-3.442-1.648-6.627-.222-9.66-1.722-0.231,1.306-.732,2.278-0.438,2.813,0.956,1.736.106,3.21-.324,4.761a1.764,1.764,0,0,1-.59.524l-0.781-3.283c-2.013-.312-4.275-1.336-6.085-0.808-4.373,1.274-8.356.123-12.262-.621l-2.066-2.436L372.052,86c-4.587.458-8.876,0.78-13.134,1.337-6.48.847-12.922,2.006-19.415,2.725-2.572.285-5.237-.255-7.859-0.42-1.1-.133-2.253.488-3.323,0.368a12.523,12.523,0,0,1-3.423-1.474c-1.942,2-4.657,2.226-7.189,2.53-4.593.55-9.234,0.673-13.845,1.091-2.261.205-4.712-.132-6.724,0.326a54.181,54.181,0,0,1-13.737.853c-4.379-.128-8.437.857-12.846,1.564l-1.837-2.117-1.191.923-1.9-1.472c-1.985,0-3.243-.284-4.273.078a11.892,11.892,0,0,0-2.864,2.055l-1.46-1.068-3,1.725-2.323-1.42L250.6,94.646l-2.132-1.132v2.313a32.23,32.23,0,0,0-3.816.641c-1.177.335-1.813,1.772-3.542,1.251-0.942-.284-2.24.612-2.889,0.82l-6.165-1.88-3.423,2.191L225.42,96.2l-2.344,1.671L221.1,96.339l-2.223,1.842c-2.4-1.6-5.67.75-7.879-2.087-1.645,2.742-4.011,1.958-6.081,2-3.4.066-6.988,0.691-9.49-2.566a11.052,11.052,0,0,1-7.514,2.669c-7.293.193-14.58,0.681-22.04,1.061l-1.768-1.069-2.665,1.706c-5.038-1.128-10.395.544-15.174-2.138l-2.7,2.107c-0.1-1.113-.161-1.845-0.265-3.034l-6.192,4.3c-2.136-3.048-4.766-1.837-7.289-1.209,0-.5.02-0.8,0-1.094-0.032-.4-0.1-0.793-0.161-1.275-2.95.822-2.133,4.471-4.408,5.325-2.687.826-3.739-1.083-4.792-2.53l-3.906-.642-1.524,1.972-5.486-1.071-3.677,1.349c-0.524-.91-0.9-1.556-1.122-1.947l-3.814,2.225-7.043-2.044L88.912,102.7l-3.266-1.5-0.842,3.33-1.516-2.314H79.522l-5.989,3.814-0.668-4.469-3.514-1.122-4.906,2.937-0.9-1.1c-2.532.33-4.473,3.029-6.96,1.167l-4.114,3.08c-0.962-1.991-2.391-2.827-4.507-2.138l-2.477,3.872-2.052-3.9c-1.926-.2-4.187.223-5.436-0.71-1.834-1.371-3.8-.152-5.178-1.412l-3.364,2.778c-2.454-.046-5.006.867-7.122-1.5-3.38,2.458-7.207,2.637-11.235,1.535l-1.5,2.523H0.43c-0.083-1.4-.241-3.02-0.261-4.638C0.092,96.947.025,90.954,0.02,84.96Q-0.008,44.482.021,4A36.61,36.61,0,0,1,.474,0H6.818Q960.665,0,1914.51.007C1916.34,0.007,1918.17.111,1920,.167ZM429.7,103.581l-4.816.236a5.977,5.977,0,0,0,5.793,1.938c1.527-.175,3.235,1.239,4.954,1.984a2.674,2.674,0,0,1-.882.958,10.57,10.57,0,0,1-2.45.045l-2.417,2.525h2.943l-1.1,2.758-8.762-2.248-2.607,1.043a3.96,3.96,0,0,1,.462-1.456,10.523,10.523,0,0,0,3.327-6.873l-3.619.379c-0.677-.767-1.43-1.623-2.246-2.548l-3.75-.444c0.418-.848.738-1.5,1.058-2.149l-2.813-2.22,12.544,1.954,4.756,3.295C429.947,103.033,429.821,103.307,429.7,103.581ZM406.828,97.1l2.3,3.415-9.734,3.911-2.7-4.057h5.193c0.038-.221.075-0.441,0.112-0.661L396.3,98.7l-2.19-2.959-5.147-1.689,2.579-1.4c-1.1-.842-2.2-1.686-3.98-3.053h5.182c0.247,0.938.494,1.878,0.8,3.032Z"/>
</svg>
